<svg width="40" height="40" viewBox="0 0 40 40" fill="none" xmlns="http://www.w3.org/2000/svg">
<path d="M33.3846 15.8843L20.8846 28.3843C20.7685 28.5006 20.6306 28.5928 20.4789 28.6557C20.3271 28.7186 20.1645 28.7509 20.0002 28.7509C19.8359 28.7509 19.6733 28.7186 19.5215 28.6557C19.3698 28.5928 19.2319 28.5006 19.1158 28.3843L6.61583 15.8843C6.38128 15.6498 6.24951 15.3317 6.24951 15C6.24951 14.6683 6.38128 14.3501 6.61583 14.1156C6.85038 13.881 7.1685 13.7493 7.50021 13.7493C7.83191 13.7493 8.15003 13.881 8.38458 14.1156L20.0002 25.7328L31.6158 14.1156C31.732 13.9994 31.8698 13.9073 32.0216 13.8445C32.1733 13.7816 32.336 13.7493 32.5002 13.7493C32.6645 13.7493 32.8271 13.7816 32.9788 13.8445C33.1306 13.9073 33.2684 13.9994 33.3846 14.1156C33.5007 14.2317 33.5928 14.3696 33.6557 14.5213C33.7186 14.6731 33.7509 14.8357 33.7509 15C33.7509 15.1642 33.7186 15.3268 33.6557 15.4786C33.5928 15.6303 33.5007 15.7682 33.3846 15.8843Z" fill="#2D3748"/>
</svg>
