<svg width="40" height="40" viewBox="0 0 40 40" fill="none" xmlns="http://www.w3.org/2000/svg">
<path d="M35 20V11.6667H8.33333C7.44928 11.6667 6.60143 11.3155 5.97631 10.6904C5.35119 10.0652 5 9.21739 5 8.33333C5 7.44928 5.35119 6.60143 5.97631 5.97631C6.60143 5.35119 7.44928 5 8.33333 5H31.6667V11.6667" stroke="#2D3748" stroke-width="3" stroke-linecap="round" stroke-linejoin="round"/>
<path d="M5 8.33337V31.6667C5 32.5508 5.35119 33.3986 5.97631 34.0237C6.60143 34.6488 7.44928 35 8.33333 35H35V26.6667" stroke="#2D3748" stroke-width="3" stroke-linecap="round" stroke-linejoin="round"/>
<path d="M30.0003 20C29.1163 20 28.2684 20.3512 27.6433 20.9763C27.0182 21.6014 26.667 22.4493 26.667 23.3333C26.667 24.2174 27.0182 25.0652 27.6433 25.6904C28.2684 26.3155 29.1163 26.6667 30.0003 26.6667H36.667V20H30.0003Z" stroke="#2D3748" stroke-width="3" stroke-linecap="round" stroke-linejoin="round"/>
</svg>
