<svg width="72" height="72" viewBox="0 0 72 72" fill="none" xmlns="http://www.w3.org/2000/svg">
<path d="M65.25 27.6874C65 23.3425 63.0714 19.4284 61.9286 17.0943L61.7857 16.8429L61.2857 15.8375L61.3929 16.9507C61.5 18.4948 61.8571 23.8093 60.2857 26.8615C58.3214 30.9192 52.5714 30.5242 50.6786 30.4165H50.5714C47.4643 30.2011 37.3571 29.842 34.25 29.842C30.1786 29.8779 25.6786 30.2011 22.0357 30.4883C20.25 30.632 18.7143 30.7397 17.6786 30.7756C17.5714 30.7756 17.4643 30.8115 17.2857 30.8115C12.2143 31.2783 9 29.7701 7.75 26.3229C7 24.2043 7 20.0029 7 17.992V16.5557L6.60714 17.2739C4.78362 20.5361 3.65267 24.1431 3.28572 27.867C2.92857 34.3306 6.28571 36.6647 8.82143 37.8137C11.5 39.0706 14.2143 39.2501 15.1071 39.3219H15.1429C15.3438 39.3517 15.547 39.3638 15.75 39.3578C16.0494 39.3474 16.3489 39.3715 16.6429 39.4296C16.1429 39.5374 15.5 39.6451 14.9643 39.7169C14.3571 39.8605 13.7857 39.9324 13.5 40.0042C12.8929 40.1478 10.3214 40.7224 8.96429 41.2251C7.82143 41.6201 6.53572 42.2305 6.5 42.2305L6.28572 42.3383L6.46429 42.5537C6.46429 42.5537 6.89286 43.1283 7.32143 43.5951C8.18753 44.3783 9.20659 44.9712 10.3135 45.336C11.4204 45.7008 12.5908 45.8294 13.75 45.7137C16.1429 45.4264 17.4643 44.816 17.9643 44.5646C18.222 45.4795 18.5321 46.3788 18.8929 47.2578C19.9643 49.9509 22.4643 55.1577 23.3929 56.9532C24.1429 58.4254 24.8929 59.7182 25.3929 60.58L25.5714 60.9032C25.4198 61.3708 25.1184 61.7749 24.7143 62.0522C24.6429 62.1241 24.6071 62.1959 24.5357 62.2318L24.5 62.3036V62.4113C24.4643 62.8781 24.3571 67.4386 27.3929 70.7422L27.4286 70.7781H27.4643C29 71.3886 30.9643 71.999 34.1786 71.999C37.4286 71.999 40.1786 71.209 41.1429 70.7422L41.2143 70.6704C43.3214 68.1568 44.3214 64.3145 44.3214 62.95V62.8781L44.1071 62.6627C43.6075 62.2182 43.258 61.6283 43.1071 60.975C43.3929 60.5441 43.8929 59.4668 44.3214 58.605C44.4718 58.2209 44.6509 57.8487 44.8571 57.4918C45.75 55.6964 48.3571 50.0228 49.4286 47.3655C50.0714 45.6419 50.4286 44.816 50.6071 44.4569C51.0714 44.7082 52.3214 45.2828 54.6786 45.5341C57.7143 45.8214 60.6071 43.8105 61.4286 42.6614C61.5714 42.4819 61.7857 42.2305 61.8214 42.1946L62 41.9792L61.75 41.8714C61.7143 41.8714 61.6429 41.8355 61.1429 41.656L59.4643 41.1174L57.7857 40.5428C57.3214 40.3992 55.25 39.9324 53.7857 39.6092L52.6429 39.3578L53 39.286C56.5 38.5319 65.7857 36.916 65.25 27.6874Z" fill="black"/>
<path d="M6.64286 18.3511C6.53571 20.757 6.57143 23.3784 7.10714 25.6765C6.62195 25.1584 6.1093 24.6669 5.57143 24.2043C5.07143 24.7429 4.64286 25.3174 4.14286 25.8202C4.65691 23.2337 5.49702 20.7238 6.64286 18.3511Z" fill="#CE1141"/>
<path d="M64.3214 24.7429L64.4643 25.3892L63.2143 24.4915C62.6429 24.7429 62.1071 25.102 61.5714 25.3533C61.9609 22.9928 62.0807 20.5953 61.9286 18.2075C63.0357 20.2543 63.6429 22.4806 64.3214 24.7429Z" fill="#CE1141"/>
<path d="M34.3214 47.5091C35.6071 49.52 38 50.0946 40.2143 49.52C41.029 49.3368 41.82 49.0597 42.5714 48.6941C41.8027 50.8843 41.4278 53.1945 41.4643 55.5168C41.4709 57.5307 41.7964 59.5307 42.4286 61.4418C42.1071 61.3699 41.8214 61.1186 41.4643 60.9749C37.0714 58.7486 30.8929 58.8204 26.5714 61.1186C26.7857 60.4363 27 59.6463 27.1786 58.9281C27.8214 55.5886 27.3571 52.1054 26.2143 49.0532C28.5357 50.0227 31.9286 50.2382 33.8214 48.0837C33.97 47.8769 34.1374 47.6846 34.3214 47.5091Z" fill="#CE1141"/>
<path d="M24.5357 49.1609C24.4286 50.0946 24.1071 51.1718 23.1071 51.5309C22.2857 51.7464 21.5714 51.2796 21.0357 50.705C20.787 50.4318 20.6145 50.0973 20.5357 49.7355C21.7857 50.5614 23.4286 49.915 24.5 49.125L24.5357 49.1609Z" fill="#CE1141"/>
<path d="M48.0714 49.2686C47.7857 50.1305 47.0357 50.9923 46.1786 51.1718C45.8575 51.2218 45.5288 51.1732 45.2357 51.0322C44.9425 50.8912 44.6986 50.6646 44.5357 50.3818C44.3111 50.0646 44.1754 49.6926 44.1429 49.3046C45.25 50.2023 47 49.9868 48.0714 49.2686Z" fill="#CE1141"/>
<path d="M45.6429 51.7105C46.1147 51.7574 46.5909 51.696 47.0357 51.5309C45.7857 54.655 44.2857 57.6714 42.75 60.6877C42.2143 59.1795 42.3571 57.5636 42.4286 55.8759C42.667 53.911 43.0976 51.9745 43.7143 50.0946C44.1429 50.8128 44.8214 51.5668 45.6429 51.7105Z" fill="#CE1141"/>
<path d="M26.1071 60.6518V60.6877C24.2143 57.815 22.7857 54.7627 21.4286 51.7105C22.0357 52.0337 23.0714 52.2491 23.7143 51.8182C24.291 51.3646 24.7048 50.7342 24.8929 50.0228C26.4286 53.1109 26.7857 57.1327 26.1071 60.6518Z" fill="#CE1141"/>
<path d="M43.7143 63.0936C43.4651 65.7215 42.4318 68.2123 40.75 70.2394C36.8571 71.7835 31.6071 71.9272 27.7143 70.2753C25.7857 68.1926 25.0714 65.4995 24.9643 62.6268C29.1071 59.6104 35.5714 58.9281 40.3214 61.0827C41.5 61.6572 42.6786 62.2318 43.7143 63.0936Z" fill="#CE1141"/>
<path d="M59.75 41.4764C56.2263 40.2141 52.5253 39.5232 48.7857 39.4296C48.4643 35.4438 48 32.966 47.2143 30.7038C45.3929 30.5961 37.3214 30.2729 34.1786 30.2729C31.0714 30.2729 23.1071 30.7756 21.3214 30.8833C20.3042 33.6973 19.6442 36.6291 19.3571 39.6092C15.3848 39.9176 11.4702 40.7506 7.71429 42.0869C7.21429 42.2664 7 42.446 7 42.4101C7.67447 43.2719 8.5301 43.9731 9.50563 44.4635C10.4812 44.9539 11.5525 45.2214 12.6429 45.2469C13.7143 45.2828 15.75 45.0673 17.0357 44.4928C17.3929 44.3492 18.1071 44.026 18.1071 44.026C18.2466 44.267 18.3661 44.5193 18.4643 44.7801C18.8214 45.7855 19.2857 47.2578 19.6071 47.8682C20.0714 48.8378 20.8214 49.5559 22.0357 49.5919C22.432 49.5695 22.8189 49.4618 23.1701 49.2759C23.5214 49.09 23.8288 48.8304 24.0714 48.5146C20.9286 48.335 19.6071 46.6473 19.3929 44.0978C18.6429 43.9901 18.4286 43.9182 18.3571 43.4873C18.311 43.2614 18.3159 43.028 18.3716 42.8042C18.4272 42.5805 18.5321 42.3721 18.6786 42.1946C19.0357 41.6919 19.6429 41.2251 21.1429 41.6919C21.9966 42.0258 22.7831 42.5124 23.4643 43.1283C24.1071 43.7387 26 45.7137 27.1429 46.3601C28.3571 47.0782 30.6786 47.7605 32.1786 46.2523C33.1329 45.3453 33.761 44.1455 33.9643 42.841C31.5973 42.7764 29.2361 42.5725 26.8929 42.2305C26.25 42.1228 26.5357 41.5124 27.0357 41.656C27.0357 41.656 31.1429 42.1946 34.0714 42.2305C34.0714 41.8714 34.0714 41.2969 34.1071 40.6146C31.6386 40.5623 29.1783 40.3101 26.75 39.8605C26.2143 39.7169 26.3214 39.1065 26.8214 39.2501C29.2321 39.6467 31.6657 39.8866 34.1071 39.9683C34.1071 39.4655 34.1429 38.7115 34.1429 38.0292C31.7255 37.9931 29.3142 37.7771 26.9286 37.3828C26.3214 37.2751 26.4643 36.7365 26.9286 36.8083C29.3206 37.1367 31.7292 37.3285 34.1429 37.3828V35.7669C34.1429 35.1565 34.6786 35.1206 34.6786 35.731V37.3469C36.9527 37.2913 39.2202 37.0753 41.4643 36.7006C42.1786 36.5569 42.1071 37.1674 41.7857 37.2033C39.4407 37.6579 37.0649 37.934 34.6786 38.0292V39.9683C36.8571 39.8965 39.4286 39.8246 41.6071 39.3219C42.4286 39.1424 42.5 39.7887 41.8214 39.8965C39.4715 40.2992 37.0969 40.5392 34.7143 40.6146C34.7143 41.1533 34.7143 41.8355 34.75 42.2305C37.2244 42.1544 39.6926 41.9386 42.1429 41.5842C42.7143 41.4764 42.8214 42.0869 42.2143 42.1946C41.6071 42.2664 37.5 42.8051 34.8571 42.8769C35.1429 43.7746 35.1786 45.0673 36.4643 46.1805C37.6786 47.2578 39.7857 47.1501 41.25 46.2882C42.3929 45.606 44.2143 43.631 44.8571 43.0205C45.3929 42.5537 46.6786 41.3687 48.3929 41.4046C50.0714 41.4405 50.1071 42.3024 50.2143 42.5537C50.2857 42.841 50.3571 43.3078 49.9643 43.5592C49.6786 43.7387 49.3929 43.6669 49.1071 43.8105C48.8929 45.211 48.4643 46.791 47.3571 47.6169C46.1786 48.5146 44.3571 48.6223 44.3571 48.6223C44.3571 48.6223 44.6071 48.9096 44.6786 48.9814C45.155 49.3229 45.7398 49.4763 46.3214 49.4123C47.0795 49.2826 47.7786 48.9186 48.3214 48.371C48.8929 47.6169 49.4286 46.0728 49.8214 45.0673C49.9643 44.7082 50.3214 44.026 50.4286 43.7387C50.7857 43.8823 50.9286 43.9901 51.5714 44.2414C52.8837 44.7373 54.2769 44.9809 55.6786 44.9596C57.4286 44.9237 59.4286 43.8464 60.6071 42.7333C60.7857 42.5537 61.2143 42.051 61.2143 42.051C61.2143 42.051 60.0714 41.5842 59.75 41.4764Z" fill="#CE1141"/>
<path d="M40.9286 63.5245C41.25 64.1349 41 64.8172 40.6429 65.3558C40.3253 65.7534 39.8998 66.0499 39.4181 66.2092C38.9363 66.3685 38.4189 66.3839 37.9286 66.2535C37.3116 66.0562 36.7816 65.6502 36.4286 65.1045C36.2857 65.6072 36.6429 65.9663 36.6071 66.4331C36.5921 66.4561 36.5723 66.4756 36.5491 66.4902C36.5258 66.5047 36.4997 66.514 36.4725 66.5174C36.4454 66.5209 36.4178 66.5183 36.3917 66.5099C36.3656 66.5016 36.3416 66.4876 36.3214 66.469C35.75 65.7149 35.5357 64.5658 36.0357 63.7399C36.6429 62.5908 37.8214 62.124 39.0714 62.2317C39.4605 62.2847 39.8315 62.4294 40.1543 62.654C40.4771 62.8787 40.7424 63.177 40.9286 63.5245Z" fill="black"/>
<path d="M32.3214 63.9195C32.8214 64.7454 32.5714 65.8227 32.1071 66.6127C32.0357 66.7204 31.9286 66.8281 31.7857 66.7204C31.5714 66.469 31.8571 66.2536 31.8929 66.0022C31.958 65.7931 31.9703 65.5709 31.9286 65.3559C31.6265 65.8015 31.2031 66.1503 30.7091 66.3604C30.2151 66.5706 29.6713 66.6332 29.1429 66.5408C28.7446 66.4446 28.3749 66.2544 28.0644 65.9859C27.7538 65.7173 27.5114 65.3783 27.3571 64.9968C27.2832 64.7506 27.2641 64.4911 27.3011 64.2366C27.3382 63.9822 27.4304 63.7391 27.5714 63.5245C28.3214 62.5191 29.6786 62.3036 30.7857 62.6627C31.4335 62.8783 31.9799 63.3256 32.3214 63.9195Z" fill="black"/>
<path d="M40.8571 69.3417C40.7857 69.5213 40.75 69.5213 40.6071 69.7008C40.2143 69.5931 39.7857 69.4495 39.3571 69.3058C35.7857 67.9054 31.25 68.3004 27.8929 69.7008C27.7828 69.6247 27.7061 69.509 27.6786 69.3776C31.5714 67.6181 36.9286 67.4026 40.8571 69.3417Z" fill="black"/>
<path d="M41.5 50.2741C40.9286 53.1109 39.1429 56.3786 36.1429 57.2045C33.7857 57.815 31.1429 57.3123 29.5357 55.3373C28.427 53.9124 27.7677 52.1866 27.6429 50.3818C27.7525 50.3239 27.8766 50.2989 28 50.31C28.25 53.0032 29.6429 55.9477 32.3214 56.7736C33.5091 57.1529 34.7822 57.1676 35.9782 56.8158C37.1741 56.464 38.2386 55.7617 39.0357 54.7986C40.0713 53.4175 40.7909 51.8235 41.1429 50.1305C41.2092 50.127 41.2755 50.138 41.3371 50.1628C41.3988 50.1876 41.4544 50.2256 41.5 50.2741Z" fill="black"/>
<path d="M6.39286 0.719843C5.82287 0.24102 5.09973 -0.0140975 4.35714 0.0016657C3.53571 0.0375746 0.5 1.07893 0.5 5.60345C0.5 10.1639 3.25 11.6361 4.89286 11.6361C6.53571 11.6361 8.21429 10.3793 8.75 8.15298C8.82143 7.8298 8.78571 7.79389 8.46429 7.65026L7.39286 7.21935C7.14286 7.14753 7.10714 7.14753 6.96429 7.57844C6.85714 7.90162 6.39286 9.19434 5.28571 9.19434C4.17857 9.19434 3.71429 7.57844 3.71429 5.85481C3.71429 4.1671 4 2.5512 5.35714 2.5512C6.71429 2.5512 7 3.98755 7.10714 4.52619C7.14286 4.77755 7.17857 4.77755 7.42857 4.77755H8.42857C8.64286 4.77755 8.64286 4.77755 8.64286 4.31073V0.576208C8.64286 0.360755 8.60714 0.360755 8.17857 0.360755H7.28571C7.10714 0.360755 7.10714 0.396663 7 0.648026C6.89286 0.791661 6.67857 1.00711 6.39286 0.719843Z" fill="black"/>
<path d="M47.1429 2.55121L49.2143 9.12253C49.3214 9.4098 49.3214 9.44571 49.5 9.44571H49.7857C50.1429 9.44571 50.1429 9.44571 50.1429 9.73298V10.9898C50.1429 11.4207 50.1071 11.4207 49.8929 11.4207H45.7857C45.4286 11.4207 45.4286 11.3848 45.4286 11.1334V9.84071C45.4286 9.44571 45.4643 9.44571 45.75 9.44571H46.1429C46.3571 9.44571 46.3571 9.37389 46.2857 9.12253L45.9643 8.11708C45.8571 7.93754 45.8214 7.93754 45.5714 7.93754H43.0714L43.6071 6.42936H45.1429C45.3929 6.42936 45.4286 6.39345 45.3571 6.21391L44.4286 3.30529C44.3929 3.12575 44.3214 3.12575 44.2857 3.26938L43.3571 6.21391C43.2857 6.42936 43.2857 6.42936 43.6429 6.42936L43.1071 7.93754C42.8214 7.93754 42.8214 7.93754 42.75 8.11708L42.4286 9.12253C42.3571 9.4098 42.3571 9.44571 42.5357 9.44571H42.9286C43.25 9.44571 43.25 9.48162 43.25 9.84071V11.1334C43.25 11.3848 43.2143 11.4207 42.8929 11.4207H40.0714C39.8214 11.4207 39.8214 11.3848 39.8214 10.9898V9.73298C39.8214 9.48162 39.8571 9.44571 40.1429 9.44571H40.4286C40.4615 9.45086 40.495 9.44934 40.5273 9.44124C40.5596 9.43314 40.59 9.41862 40.6166 9.39855C40.6432 9.37847 40.6656 9.35323 40.6824 9.32433C40.6991 9.29543 40.71 9.26344 40.7143 9.23026L42.8214 2.58711C42.8929 2.40757 42.8929 2.37166 42.5714 2.37166H42.1786C41.8571 2.37166 41.8571 2.33575 41.8571 2.08439V0.755761C41.8571 0.360764 41.8571 0.360764 42.3214 0.360764H47.7857C48.1071 0.360764 48.1071 0.396673 48.1071 0.755761V2.01257C48.1071 2.29984 48.1071 2.29984 47.7143 2.29984H47.2857C47.0714 2.26393 47.0714 2.33575 47.1429 2.55121Z" fill="black"/>
<path d="M57.0357 7.54255H57.75C58.0714 7.54255 58.0714 7.57846 58.0714 7.75801C58.0714 8.40437 57.6071 9.19436 56.4286 9.19436C55.3214 9.19436 54.8571 7.57846 54.8571 5.85484C54.8571 4.16712 55.1429 2.55122 56.5 2.55122C56.8985 2.53939 57.2892 2.6646 57.6073 2.90617C57.9255 3.14774 58.1522 3.49121 58.25 3.87985C58.2857 4.13121 58.2857 4.13121 58.5714 4.13121H59.5714C59.7857 4.13121 59.7857 4.13121 59.7857 3.62848V0.576228C59.7857 0.360775 59.75 0.360775 59.3214 0.360775H58.4286C58.25 0.360775 58.25 0.360775 58.1071 0.648046C58.0714 0.791682 57.8214 1.00714 57.5357 0.719864C56.9627 0.24642 56.2416 -0.007976 55.5 0.00168627C54.6786 0.0375952 51.6429 1.07895 51.6429 5.60347C51.6429 10.1639 54.3571 11.6362 56.0357 11.6362C58.5357 11.6362 60.4643 9.73299 60.4643 6.14211C60.4643 5.78302 60.4286 5.74711 59.9286 5.74711H56.9643C56.6786 5.74711 56.6429 5.78302 56.6429 6.1062V7.29119C56.6429 7.54255 56.6786 7.54255 57.0357 7.54255Z" fill="black"/>
<path d="M66.6429 0.288943C63.9286 0.288943 61.75 2.87438 61.75 5.99846C61.75 9.15844 63.9286 11.6721 66.6429 11.6721C69.3214 11.6721 71.5 9.15844 71.5 5.99846C71.5 2.87438 69.3214 0.288943 66.6429 0.288943L66.6071 2.33575C67.6071 2.33575 68.4286 3.98756 68.4286 5.99846C68.4286 8.00935 67.6429 9.66116 66.6071 9.66116C65.6071 9.66116 64.7857 8.00935 64.7857 5.99846C64.7857 3.98756 65.6071 2.33575 66.6071 2.33575L66.6429 0.288943Z" fill="black"/>
<path d="M11.8214 9.19435V2.62302C11.8214 2.37166 11.7857 2.33575 11.5357 2.33575H11.2143C10.8929 2.33575 10.8929 2.29984 10.8929 2.08439V0.648035C10.8929 0.396672 10.9286 0.360764 11.2857 0.360764H15.1429C15.4286 0.360764 15.4643 0.360764 15.4643 0.648035V1.97666C15.4643 2.26393 15.4286 2.26393 15.1429 2.26393H14.9286C14.75 2.26393 14.7143 2.26393 14.75 2.5153V4.41847C14.75 4.88528 14.75 4.92119 15.1429 4.92119H17.2143C17.6071 4.92119 17.6071 4.88528 17.6071 4.41847V2.5153C17.6071 2.26393 17.5714 2.26393 17.4286 2.26393H17.2143C16.8929 2.26393 16.8571 2.26393 16.8571 1.97666V0.648035C16.8571 0.360764 16.9286 0.360764 17.2143 0.360764H21.0357C21.4643 0.360764 21.4643 0.360764 21.4643 0.648035V2.08439C21.4643 2.33575 21.4286 2.33575 21.1071 2.33575H20.7857C20.5357 2.33575 20.5357 2.37166 20.5357 2.62302V9.19435C20.5357 9.44571 20.5714 9.44571 20.8571 9.44571H21.1786C21.4643 9.44571 21.4643 9.44571 21.4643 9.84071V11.1334C21.4643 11.3489 21.4643 11.4207 21.1071 11.4207H17.0357C16.7857 11.4207 16.7857 11.4207 16.7857 10.9898V9.73298C16.75 9.44571 16.7857 9.44571 17.1071 9.44571H17.3214C17.5714 9.44571 17.5714 9.4098 17.5714 9.15844V7.11163C17.5714 6.64482 17.5357 6.60891 17.2143 6.60891H15.1429C14.8214 6.60891 14.7857 6.64482 14.7857 7.11163V9.15844C14.7857 9.44571 14.7857 9.44571 15.0357 9.44571H15.25C15.5714 9.44571 15.5714 9.44571 15.5714 9.73298V10.9898C15.5714 11.4207 15.5714 11.4207 15.3214 11.4207H11.2143C10.8929 11.4207 10.8929 11.4207 10.8929 11.1334V9.84071C10.8929 9.44571 10.9286 9.44571 11.1429 9.44571H11.5C11.8214 9.44571 11.8214 9.44571 11.8214 9.19435Z" fill="black"/>
<path d="M24.3214 2.55121C24.3214 2.29984 24.3214 2.29984 24.1429 2.29984H23.7857C23.4286 2.29984 23.4286 2.26393 23.4286 2.01257V0.648035C23.4286 0.360764 23.4643 0.360764 23.75 0.360764H27.5714C28 0.360764 28 0.360764 28 0.648035V2.08439C28 2.33575 27.9643 2.33575 27.6429 2.33575H27.4643C27.2143 2.33575 27.2143 2.37166 27.2143 2.62302V9.19435C27.2143 9.44571 27.25 9.44571 27.5357 9.44571H27.8214C28.0714 9.44571 28.0714 9.44571 28.0714 9.84071V11.1334C28.0714 11.3489 28.0714 11.4207 27.75 11.4207H23.6786C23.4286 11.4207 23.4286 11.4207 23.4286 10.9898V9.73298C23.3929 9.44571 23.4286 9.44571 23.75 9.44571H24.0714C24.3214 9.44571 24.3214 9.44571 24.3214 9.15844V2.55121Z" fill="black"/>
<path d="M35.5 0.719864C34.927 0.24642 34.2059 -0.007976 33.4643 0.00168627C32.6429 0.0375952 29.6071 1.07895 29.6071 5.60347C29.6071 10.1639 32.3214 11.6362 34 11.6362C35.6429 11.6362 37.3214 10.3794 37.8571 8.153C37.9286 7.82982 37.8929 7.79392 37.5714 7.65028L36.5 7.21937C36.25 7.14755 36.2143 7.14755 36.0714 7.57846C35.9643 7.90164 35.5 9.19436 34.3929 9.19436C33.2857 9.19436 32.8214 7.57846 32.8214 5.85484C32.8214 4.16712 33.1071 2.55122 34.4643 2.55122C35.8214 2.55122 36.1071 3.98757 36.2143 4.52621C36.25 4.77757 36.2857 4.77757 36.5357 4.77757H37.5357C37.75 4.77757 37.75 4.77757 37.75 4.31075V0.576228C37.75 0.360775 37.7143 0.360775 37.2857 0.360775H36.3929C36.2143 0.360775 36.2143 0.396684 36.1071 0.648046C36 0.791682 35.7857 1.00714 35.5 0.719864Z" fill="black"/>
<path d="M11.1786 16.6275V23.1629C11.1786 23.3783 11.1429 23.3783 10.9286 23.3783H10.5714C10.2857 23.3783 10.25 23.4502 10.25 23.7374V25.102C10.25 25.3533 10.3214 25.3533 10.6071 25.3533H16.5714L14.5357 23.2706C14.1429 23.2706 14.1071 23.2706 14.1071 22.8397V20.9724C14.1071 20.6134 14.1429 20.5774 14.5357 20.5774V18.8897C14.1071 18.8897 14.1071 18.8538 14.1071 18.4947V16.5916C14.1071 16.1966 14.1429 16.1966 14.5 16.1966C14.8929 16.1966 16.4643 16.2325 16.4643 17.597C16.4643 18.9615 15.0357 18.8897 14.5357 18.8897V20.6134C14.9643 20.6134 16.4643 20.6493 16.4643 22.0138C16.4643 23.3783 15.0357 23.3424 14.5357 23.3424L16.5714 25.4251C18.0714 25.4251 19.1786 24.0606 19.1786 22.5165C19.1786 20.9724 18.2143 20.362 17.4286 19.7875C18 19.3565 18.9643 18.7102 18.9643 17.1661C18.9643 15.4425 17.2857 14.3652 16.25 14.3652H10.75C10.2857 14.3652 10.25 14.3652 10.25 14.7243V16.1247C10.25 16.3402 10.2857 16.3761 10.6071 16.3761H10.9643C11.1786 16.3043 11.1786 16.3402 11.1786 16.6275Z" fill="black"/>
<path d="M29.4286 16.5197V22.1574C29.4286 23.5938 28.6786 25.7124 25.8571 25.7124C23 25.7124 21.6429 23.5938 21.6429 22.1574V16.5197C21.6429 16.2684 21.6071 16.2684 21.3929 16.2684H21.0714C20.75 16.2684 20.75 16.2684 20.75 15.9811V14.7243C20.75 14.2934 20.7857 14.2934 21.1429 14.2934H24.9643C25.25 14.2934 25.3214 14.2934 25.3214 14.6525V15.9093C25.3214 16.1966 25.2857 16.1966 24.8929 16.1966H24.5714C24.3929 16.1966 24.3571 16.2325 24.3571 16.4479V21.942C24.3687 22.3794 24.5515 22.7945 24.8658 23.0971C25.1802 23.3997 25.6006 23.5653 26.0357 23.5579C26.2523 23.573 26.4696 23.5419 26.6734 23.4666C26.8771 23.3912 27.0627 23.2733 27.2179 23.1207C27.3731 22.9681 27.4944 22.7841 27.5738 22.5809C27.6532 22.3778 27.6889 22.16 27.6786 21.942V16.5197C27.6786 16.1966 27.6429 16.1966 27.3929 16.1966H27.1071C26.7857 16.1966 26.75 16.1966 26.75 15.9093V14.6525C26.75 14.3293 26.75 14.2934 27.0714 14.2934H29.8929C30.3929 14.2934 30.3929 14.2934 30.3929 14.6525V15.9811C30.3929 16.2684 30.3929 16.2684 30.0357 16.2684H29.6786C29.4286 16.3043 29.4286 16.3043 29.4286 16.5197Z" fill="black"/>
<path d="M42.75 23.3783H42.3571C42.1071 23.3783 42.0714 23.4502 42.0714 23.8092V25.102C42.0714 25.3533 42.1071 25.3533 42.3929 25.3533H49.4286C49.75 25.3533 49.7857 25.3533 49.7857 24.9583V21.7624C49.7857 21.4752 49.75 21.4752 49.4286 21.4752H48.4286C48.1071 21.4752 48.0714 21.4752 48.0714 21.8702V22.9833C48.0714 23.4143 48.0357 23.4502 47.75 23.4502H46.1786C45.7143 23.4502 45.6786 23.3783 45.6786 23.0911V16.6993C45.6786 16.2684 45.6786 16.2684 45.9286 16.2684H46.3214C46.6429 16.2684 46.6429 16.2325 46.6429 15.9811V14.7243C46.6429 14.3652 46.6429 14.3293 46.2857 14.3293H42.5357C42.0357 14.3293 42.0357 14.3652 42.0357 14.7243V16.017C42.0357 16.3043 42.0714 16.3402 42.3929 16.3402H42.7143C42.9643 16.3402 42.9643 16.3402 42.9643 16.7352V23.0911C43 23.3783 42.9643 23.3783 42.75 23.3783Z" fill="black"/>
<path d="M59.0714 22.3011C59.0714 24.6352 56.8571 25.6406 55.9286 25.6406C55.192 25.6214 54.4799 25.3702 53.8929 24.9224C53.6071 24.6352 53.2857 24.9584 53.1786 25.102C53.0357 25.3534 53 25.3893 52.8928 25.3893H52.4286C51.9643 25.3893 52 25.3893 52 25.1379V22.0856C52 21.5829 52 21.5829 52.1786 21.5829H52.8928C53.1428 21.5829 53.1429 21.6188 53.2143 21.8343C53.3475 22.2653 53.6125 22.643 53.9715 22.9138C54.3306 23.1846 54.7655 23.3346 55.2143 23.3425C55.75 23.3425 56.1786 23.1988 56.1786 22.732C56.1786 21.6906 55.5714 21.4393 54.5 20.8647C53.4286 20.3261 51.8214 19.6797 51.8214 17.3098C51.8184 16.4693 52.1346 15.6594 52.7054 15.0454C53.2763 14.4315 54.0587 14.0597 54.8929 14.0061C55.5979 14.02 56.2775 14.2731 56.8214 14.7243C56.8772 14.7688 56.9423 14.7999 57.0119 14.815C57.0815 14.8302 57.1536 14.829 57.2226 14.8117C57.2917 14.7943 57.3558 14.7612 57.4101 14.7149C57.4644 14.6686 57.5074 14.6104 57.5357 14.5448C57.7143 14.2575 57.7143 14.2575 57.8571 14.2575H58.3214C58.75 14.2575 58.7857 14.2575 58.7857 14.5089V17.5611C58.7857 18.0279 58.7857 18.0638 58.5714 18.0638H57.8929C57.6071 18.0638 57.6071 18.0279 57.5357 17.8125C57.377 17.3766 57.0908 16.9992 56.7147 16.73C56.3386 16.4607 55.8902 16.3124 55.4286 16.3043C55.3326 16.2955 55.2358 16.308 55.1452 16.341C55.0545 16.3739 54.9722 16.4266 54.904 16.4951C54.8359 16.5636 54.7835 16.6464 54.7507 16.7375C54.7179 16.8287 54.7055 16.926 54.7143 17.0225C54.7143 17.6689 55.4286 18.2434 56.6429 18.8538C57.8571 19.4284 59.0714 20.3261 59.0714 22.3011Z" fill="black"/>
<path d="M32.9643 23.3783H32.5714C32.3214 23.3783 32.2857 23.4502 32.2857 23.8092V25.102C32.2857 25.3533 32.3214 25.3533 32.6429 25.3533H39.6786C39.9643 25.3533 40 25.3533 40 24.9583V21.7624C40 21.4752 39.9643 21.4752 39.6786 21.4752H38.6429C38.3214 21.4752 38.2857 21.4752 38.2857 21.8702V22.9833C38.2857 23.4143 38.25 23.4502 37.9643 23.4502H36.3929C35.9286 23.4502 35.9286 23.3783 35.9286 23.0911V16.6993C35.9286 16.2684 35.9286 16.2684 36.1429 16.2684H36.5357C36.8571 16.2684 36.8571 16.2325 36.8571 15.9811V14.7243C36.8571 14.3652 36.8571 14.3293 36.5 14.3293H32.75C32.2857 14.3293 32.2857 14.3652 32.2857 14.7243V16.017C32.2857 16.3043 32.2857 16.3402 32.6071 16.3402H32.9286C33.1786 16.3402 33.1786 16.3402 33.1786 16.7352V23.0911C33.2143 23.3783 33.1786 23.3783 32.9643 23.3783Z" fill="black"/>
<path d="M7.71428 27.5079C9.25 30.4883 12.3571 31.4579 15.5357 31.2783C17.2857 31.2783 19 31.0988 20.75 30.9911V31.0988C19.8633 33.5996 19.2408 36.1873 18.8929 38.8192C14.3214 38.9987 9.64286 38.6037 6.28571 35.5515C3.96428 33.2174 3.39286 29.9856 3.89286 26.7897C4.42857 26.1434 5.03571 25.6047 5.57143 24.9584C6.32143 25.7843 7.53571 26.4306 7.71428 27.5079Z" fill="white"/>
<path d="M64.6071 26.1793C64.7143 26.6461 64.7143 27.077 64.7857 27.5797C65 31.0988 63.4643 34.3665 60.4643 36.1619C57.1786 38.1728 53.3929 38.8192 49.3571 38.9628C49.2857 38.6037 49.25 38.101 49.1786 37.706C48.897 35.3743 48.4312 33.0689 47.7857 30.8115C52.1071 30.7397 57.3571 31.8888 60.2143 27.9029C60.5714 27.3284 60.9643 26.8615 61.2857 26.2511C61.9286 25.9638 62.5357 25.5329 63.1786 25.2097C63.7143 25.4611 64.0714 25.892 64.6071 26.1793Z" fill="white"/>
<path d="M48.2143 44.0978C48.25 45.4623 47.7857 46.8628 46.5714 47.5091C45.9982 47.8041 45.3572 47.9404 44.7143 47.9041C44.6964 47.7731 44.6964 47.6402 44.7143 47.5091C45.6786 47.5091 46.6429 47.1501 47.1786 46.3601C47.5109 45.7298 47.6827 45.0266 47.6786 44.3133C47.8372 44.199 48.021 44.1251 48.2143 44.0978Z" fill="white"/>
<path d="M23.8571 47.7605C23.6587 47.8171 23.4485 47.8171 23.25 47.7605C22.8156 47.7611 22.3858 47.6713 21.9875 47.4968C21.5893 47.3222 21.2314 47.0667 20.9361 46.7463C20.6409 46.4259 20.4149 46.0475 20.2722 45.6349C20.1295 45.2224 20.0733 44.7846 20.1071 44.3491C20.3032 44.2772 20.5182 44.2772 20.7143 44.3491C20.7143 45.606 21.2143 47.2578 23.7857 47.2578C23.9643 47.545 23.7857 47.5809 23.8571 47.7605Z" fill="white"/>
</svg>
