<svg width="116" height="72" viewBox="0 0 116 72" fill="none" xmlns="http://www.w3.org/2000/svg">
<path d="M25.5226 16.1868C25.5226 16.1868 35.3038 0 55.3409 0C75.378 0 84.7318 15.7545 84.7318 15.7545H111.891L110.799 22.479C110.799 22.479 110.039 25.1688 108.805 25.457H110.657C110.657 25.457 111.274 27.8586 107.57 36.024H115.5C115.5 36.024 115.785 50.3376 98.6913 57.062C98.6913 57.062 89.8597 59.8959 85.349 55.0447C85.349 55.0447 76.3276 72 55.3409 72C34.3541 72 24.9054 54.5644 24.9054 54.5644H0.5L4.39346 47.5037H1.73451L4.86828 41.6918H10.1387L11.0408 39.4823H8.57181L14.6494 28.1468H18.0681L19.445 24.6885H16.5012L21.0119 16.1868H25.5226Z" fill="white"/>
<path d="M55.6257 68.2055C72.7664 68.2055 86.6785 53.94 86.6785 36.3122C86.6785 18.7325 72.7664 4.46699 55.6257 4.46699C38.485 4.46699 24.573 18.7325 24.573 36.3122C24.573 53.94 38.485 68.2055 55.6257 68.2055Z" fill="#FDB927"/>
<path d="M59.0444 36.1681H57.7149C57.6656 36.1715 57.6192 36.1928 57.5843 36.2281C57.5494 36.2635 57.5283 36.3104 57.525 36.3602C57.525 36.4563 57.6199 36.5043 57.7149 36.5043H59.0919C59.5667 36.5043 59.994 36.5524 59.8515 36.7445L56.2905 43.6611C56.2312 43.8195 56.1244 43.9552 55.9852 44.0493C55.846 44.1434 55.6812 44.1911 55.5138 44.1858C55.3464 44.1805 55.1849 44.1225 55.0517 44.0198C54.9186 43.9171 54.8205 43.7749 54.7711 43.6131L53.0142 34.3909L59.1868 29.5397C59.8041 28.9633 60.9911 28.0987 61.6084 28.0987H62.9853C63.7925 28.0987 64.0774 28.483 63.8875 29.0113L63.6501 29.4436C63.5076 29.7318 62.9853 29.7799 62.6055 29.7799H61.7983C61.7789 29.777 61.7592 29.7788 61.7406 29.7851C61.7221 29.7913 61.7052 29.8019 61.6914 29.8158C61.6776 29.8298 61.6672 29.8469 61.661 29.8656C61.6548 29.8844 61.6531 29.9044 61.6558 29.924C61.6558 30.02 61.7033 30.1161 61.7983 30.1161H62.6055C62.9378 30.1161 63.3177 30.1161 63.1752 30.3562L60.3264 35.928C60.1839 36.1201 59.5667 36.1681 59.0444 36.1681ZM69.7751 39.5784C66.8788 43.1808 65.2644 44.3816 62.3206 44.3816C61.3235 44.3816 60.8012 44.1414 61.0386 43.6611L64.5522 36.5524H65.8817C67.3536 36.5524 67.1637 37.8012 66.7838 39.5304C66.6889 39.7705 66.8788 39.7705 67.0687 39.5784L70.3924 33.6705C70.5348 33.2862 70.1075 33.2382 69.9176 33.5264C68.2557 35.7839 66.4989 35.6398 65.7392 35.6398H65.1694L68.873 28.435H70.3924C72.2916 28.531 73.1463 30.1641 72.624 34.1027H73.3837L76.1376 28.6271C76.375 28.1468 75.9002 27.7145 75.3779 27.7145L56.7653 27.7625C55.6732 27.7625 55.6257 28.5791 56.6703 28.5791C57.525 28.5791 57.4775 29.7799 56.7178 30.3562L48.7884 36.7445L50.4028 44.2375C50.4426 44.4913 50.5794 44.7191 50.7837 44.8718C50.9879 45.0245 51.2433 45.09 51.4949 45.054H66.8788C67.0978 45.0749 67.3185 45.0371 67.5185 44.9443C67.7186 44.8516 67.8909 44.7072 68.0183 44.5257L70.7722 39.6745C71.1521 38.954 70.2974 39.002 69.7751 39.5784Z" fill="#552583"/>
<path d="M35.7311 37.561H30.8405L37.0131 29.2995L35.7311 37.561ZM34.5915 42.7004C34.4491 43.517 33.5944 44.0934 32.5498 44.3816L31.4578 44.6698L32.3599 43.0367C32.5973 42.5563 32.075 42.3162 31.5052 42.9886C27.7067 47.4556 26.4722 49.6171 20.5846 49.6171H19.0177C18.5429 49.6171 18.0206 49.4249 18.3529 48.9926L20.4421 45.054H28.324C29.3686 45.054 29.1312 44.2375 28.4664 44.2375C28.2272 44.1982 27.9984 44.1098 27.7942 43.9776C27.5901 43.8454 27.4149 43.6723 27.2794 43.469C27.181 43.2912 27.1333 43.0893 27.1417 42.8858C27.1501 42.6822 27.2142 42.485 27.3269 42.3162L30.3182 38.2335H35.3512L34.5915 42.7004ZM46.2719 44.2375C46.1051 44.2214 45.946 44.159 45.8119 44.0574C45.6779 43.9557 45.5742 43.8185 45.5122 43.6611C45.3584 43.1903 45.3752 42.6795 45.5597 42.2201L52.7294 29.3475C52.8243 29.1074 53.1567 28.579 53.4891 28.579C54.1063 28.579 54.3912 27.7625 53.3466 27.7625H47.5539C46.5093 27.7625 46.5093 28.579 47.5064 28.579C47.5882 28.5733 47.6699 28.5889 47.744 28.6243C47.8181 28.6596 47.882 28.7136 47.9296 28.781C47.9772 28.8485 48.0069 28.9271 48.016 29.0094C48.025 29.0918 48.0131 29.1751 47.9812 29.2515L46.4144 32.1814C46.177 32.4696 45.7496 32.5177 45.2748 32.5177H43.9453C43.8504 32.5177 43.7554 32.5657 43.7554 32.6618C43.7587 32.7116 43.7798 32.7585 43.8148 32.7939C43.8497 32.8292 43.8961 32.8505 43.9453 32.8539H45.2748C45.6547 32.8539 45.9396 32.9499 45.7496 33.3822L40.4317 43.1808C40.0519 43.7091 39.2922 43.8052 39.3397 42.7965L41.1914 28.483C41.2864 28.0507 41.1914 27.7145 40.7166 27.7145H37.8677C37.7217 27.7157 37.5786 27.7564 37.4534 27.8324C37.3282 27.9085 37.2253 28.017 37.1555 28.1467L36.1109 29.3956C36.016 29.5397 35.6836 29.5397 35.3987 29.5397H33.0247C32.9754 29.543 32.929 29.5644 32.8941 29.5997C32.8591 29.635 32.8381 29.682 32.8347 29.7318C32.8347 29.8279 32.9297 29.8759 33.0247 29.8759H34.9714C35.3037 29.8759 35.6836 29.972 35.5412 30.1641L32.8347 33.6224C32.678 33.7203 32.4966 33.7703 32.3124 33.7665H31.5527C31.4578 33.7665 31.3628 33.8145 31.3628 33.9106C31.3661 33.9604 31.3872 34.0074 31.4221 34.0427C31.4571 34.078 31.5035 34.0993 31.5527 34.1027H32.17C32.3599 34.1027 32.3599 34.1988 32.3124 34.2948L29.7484 37.561C29.5422 37.6644 29.3137 37.714 29.0837 37.7051H26.8046C26.7096 37.7051 26.6622 37.8012 26.6622 37.8972C26.6594 37.9168 26.6611 37.9368 26.6673 37.9555C26.6735 37.9743 26.6839 37.9914 26.6977 38.0054C26.7116 38.0193 26.7284 38.0299 26.747 38.0361C26.7655 38.0424 26.7853 38.0442 26.8046 38.0413H28.7513C29.0837 38.0413 29.2736 38.0894 29.1312 38.3295L25.4751 42.9406C24.8104 43.8532 21.4867 44.2855 20.822 44.2855L33.2146 20.8939C33.3138 20.698 33.4629 20.5323 33.6466 20.4141C33.8302 20.2959 34.0417 20.2294 34.2592 20.2215H36.8706C38.1051 20.2215 38.1051 19.3569 37.0131 19.3569H23.8133C22.7212 19.3569 22.6737 20.2215 23.9557 20.2215H26.3773C27.0895 20.2215 27.2794 20.6057 27.0895 20.99L26.7571 21.6144C26.6622 21.8065 26.4722 21.9026 25.8075 21.9026H21.4867C21.3917 21.9026 21.3443 21.9986 21.3443 22.0947C21.3415 22.1143 21.3432 22.1342 21.3494 22.153C21.3556 22.1718 21.366 22.1888 21.3798 22.2028C21.3937 22.2168 21.4105 22.2273 21.4291 22.2336C21.4476 22.2398 21.4673 22.2416 21.4867 22.2388H25.8075C26.0449 22.2388 26.3773 22.3349 26.1873 22.7672L25.5701 23.8719C25.4751 24.064 25.1902 24.1121 24.9054 24.1121H22.9111C22.8162 24.1121 22.7687 24.2081 22.7687 24.3042C22.7687 24.4002 22.8162 24.4963 22.9111 24.4963H24.8579C25.1428 24.4963 25.1902 24.6884 25.0003 24.9286L23.6234 27.5223C23.4809 27.7625 23.291 27.8105 22.8162 27.8105H22.0565C21.9615 27.8105 21.8666 27.8585 21.8666 27.9546C21.8699 28.0045 21.891 28.0514 21.9259 28.0867C21.9608 28.122 22.0072 28.1434 22.0565 28.1467H22.8162C23.1011 28.1467 23.196 28.2908 23.0536 28.579L21.914 30.7405C21.7241 31.0287 21.4867 31.1728 20.727 31.1728H16.4062C16.3869 31.1699 16.3671 31.1717 16.3486 31.178C16.33 31.1842 16.3132 31.1948 16.2993 31.2087C16.2855 31.2227 16.2751 31.2398 16.2689 31.2585C16.2627 31.2773 16.261 31.2973 16.2638 31.3169C16.2638 31.4129 16.3112 31.509 16.4062 31.509H20.727C21.2018 31.509 21.3917 31.7491 21.2018 32.0854L18.9702 36.3122C18.8278 36.5043 18.4954 36.5523 17.8781 36.5523H13.5573C13.4624 36.5523 13.3674 36.6004 13.3674 36.6964C13.3707 36.7463 13.3918 36.7932 13.4267 36.8285C13.4617 36.8639 13.5081 36.8852 13.5573 36.8886H17.8306C18.3529 36.8886 18.6853 36.8886 18.5429 37.1768L17.2609 39.6264C17.0235 40.0107 16.3587 40.0107 16.0738 40.0107H14.6969C14.6775 40.0078 14.6578 40.0096 14.6392 40.0159C14.6207 40.0221 14.6038 40.0327 14.59 40.0466C14.5762 40.0606 14.5658 40.0777 14.5596 40.0964C14.5534 40.1152 14.5517 40.1352 14.5544 40.1547C14.5544 40.2508 14.6019 40.3469 14.6969 40.3469H16.0738C16.5487 40.3469 16.7861 40.4429 16.6911 40.6831L14.9818 43.9493C14.7918 44.2375 14.1271 44.2375 13.6048 44.2375H6.95744C6.90816 44.2408 6.86177 44.2622 6.82685 44.2975C6.79192 44.3328 6.77084 44.3798 6.76751 44.4296C6.76751 44.5257 6.86247 44.5737 6.95744 44.5737H13.6048C14.0796 44.5737 14.6019 44.6698 14.412 45.006L13.3199 47.0714C13.225 47.2635 12.8451 47.2635 12.2753 47.2635H10.9459C10.8966 47.2669 10.8502 47.2882 10.8153 47.3235C10.7803 47.3588 10.7593 47.4058 10.7559 47.4556C10.7559 47.5517 10.8509 47.5997 10.9459 47.5997H12.2753C12.6077 47.5997 13.035 47.6477 12.8926 47.9359L12.1804 49.2328C12.1016 49.4207 11.9691 49.5806 11.7999 49.6918C11.6307 49.8031 11.4325 49.8607 11.2308 49.8572H7.85958C6.62507 49.8572 6.67255 50.7218 7.76462 50.7218H27.4219C27.9916 50.7218 28.0391 50.6257 28.2765 50.1934L31.2204 45.054H46.1295C47.1741 45.054 46.9367 44.2375 46.2719 44.2375Z" fill="#552583"/>
<path d="M84.3519 34.7752C83.8296 35.2555 82.9749 35.7358 82.785 35.5917C82.3768 35.2385 81.9309 34.9324 81.4555 34.6791L84.6843 28.7231C84.7511 28.6224 84.844 28.5422 84.9529 28.4914C85.0618 28.4405 85.1824 28.421 85.3015 28.435C86.5835 28.435 86.9634 29.7799 86.3936 31.509C85.9663 32.7098 85.3015 34.0067 84.3519 34.7752ZM110.277 40.1067C110.182 39.7225 110.039 39.9626 109.802 40.443C109.707 40.6351 109.469 40.6351 109.185 40.6351H108.425C108.383 40.6372 108.342 40.6521 108.308 40.6777C108.274 40.7034 108.249 40.7387 108.235 40.7792C108.233 40.805 108.236 40.8311 108.244 40.8555C108.253 40.88 108.267 40.9022 108.285 40.9205C108.303 40.9389 108.325 40.953 108.349 40.9617C108.374 40.9705 108.399 40.9738 108.425 40.9713H109.185C109.469 40.9713 109.469 41.1634 109.327 41.4516C108.851 42.5126 108.228 43.4993 107.475 44.3816C107.394 44.4628 107.298 44.526 107.192 44.5674C107.085 44.6087 106.972 44.6272 106.858 44.6217L106.051 44.6698C105.956 44.6698 105.861 44.7178 105.861 44.8139C105.864 44.8637 105.885 44.9107 105.92 44.946C105.955 44.9813 106.002 45.0026 106.051 45.006H106.811C107.238 45.006 106.811 45.2462 106.763 45.3422C105.814 46.6549 104.696 47.8341 103.439 48.8486C103.08 48.919 102.712 48.9352 102.347 48.8966H101.54C101.445 48.8966 101.398 48.9927 101.398 49.0887C101.395 49.1083 101.397 49.1283 101.403 49.147C101.409 49.1658 101.419 49.1829 101.433 49.1968C101.447 49.2108 101.464 49.2214 101.482 49.2276C101.501 49.2338 101.521 49.2356 101.54 49.2328L102.347 49.2809C102.917 49.2809 102.49 49.6171 102.395 49.6651C100.258 51.4903 97.0294 52.0667 95.605 51.8746C90.8568 51.2982 89.8597 47.6478 89.5274 46.1588C89.3661 45.7376 89.2391 45.3039 89.1475 44.8619C89.0051 44.0934 91.1417 43.9013 91.7115 44.2855C92.6136 44.9099 94.7028 45.5344 96.3647 45.5344C97.8841 45.5344 100.97 44.4296 101.872 41.7879C102.822 39.05 100.496 36.0721 99.4509 35.0153C98.1689 33.7185 96.9344 31.6051 97.4567 30.068C97.8366 28.9153 98.5013 28.3869 99.8783 28.3869C101.73 28.3869 103.012 29.5397 103.012 31.2208C103.012 31.3649 102.965 31.557 102.822 31.557H102.205C102.156 31.5604 102.109 31.5817 102.074 31.6171C102.039 31.6524 102.018 31.6993 102.015 31.7492C102.015 31.8452 102.11 31.8933 102.205 31.8933H102.775C102.815 31.8905 102.856 31.8984 102.893 31.9161C102.93 31.9338 102.962 31.9608 102.986 31.9945C103.01 32.0282 103.025 32.0674 103.029 32.1085C103.034 32.1497 103.028 32.1913 103.012 32.2295C102.917 32.8059 102.87 33.1901 102.727 33.7665C102.68 34.1027 103.154 34.2949 103.297 34.0547L106.146 28.9153C106.383 28.531 105.908 28.435 105.576 28.531C104.769 28.8192 103.534 29.0113 103.06 28.6751C102.066 27.8613 100.824 27.4201 99.5459 27.4263C97.0294 27.4263 95.2251 28.0507 94.0856 30.1641C93.9906 30.3082 93.7532 30.3082 93.5633 30.3082H93.041C92.946 30.3082 92.8985 30.4043 92.8985 30.5003C92.8985 30.5964 92.946 30.6925 93.041 30.6925L93.4683 30.6444C93.6582 30.6444 93.7532 30.7405 93.6582 30.9326C93.6107 31.1247 93.5158 31.3169 93.4683 31.509C93.1982 32.6273 93.2812 33.8031 93.7057 34.8713C93.7532 34.9193 93.6582 34.9673 93.4683 34.9673H92.7086C92.6593 34.9707 92.6129 34.992 92.578 35.0273C92.5431 35.0627 92.522 35.1096 92.5187 35.1594C92.5187 35.2555 92.6136 35.3035 92.7086 35.3035H93.4683C93.8482 35.3035 93.8956 35.3516 94.0381 35.5437C94.4654 36.1201 94.8927 36.5524 95.3676 37.2248C95.5575 37.4169 94.8453 37.465 94.4654 37.465H91.4266C91.3762 37.465 91.3279 37.4852 91.2923 37.5212C91.2567 37.5573 91.2367 37.6061 91.2367 37.6571C91.2367 37.7081 91.2567 37.7569 91.2923 37.793C91.3279 37.829 91.3762 37.8492 91.4266 37.8492H94.5129C95.0352 37.8492 95.8898 37.8012 95.9848 37.9453C96.7445 38.8099 97.6467 40.1548 97.7891 41.3075C97.8366 41.6438 97.6941 41.7879 97.3143 41.7879H96.887C96.8676 41.785 96.8479 41.7868 96.8293 41.7931C96.8108 41.7993 96.7939 41.8099 96.7801 41.8238C96.7663 41.8378 96.7558 41.8549 96.7497 41.8736C96.7435 41.8924 96.7417 41.9124 96.7445 41.932C96.7445 42.028 96.792 42.1241 96.887 42.1241H97.2668C97.5992 42.1241 97.7416 42.1721 97.6941 42.4123C97.2668 43.7091 96.697 44.6698 94.228 44.6217C91.6165 44.6217 91.0942 42.0761 91.8539 39.3863C91.9964 38.8579 91.8539 38.6177 91.6165 39.05L89.8122 41.932C89.7508 41.9958 89.6767 42.0458 89.595 42.0789C89.5132 42.112 89.4255 42.1274 89.3374 42.1241H89.1C89.0497 42.1241 89.0013 42.1443 88.9657 42.1804C88.9301 42.2164 88.9101 42.2653 88.9101 42.3162C88.9101 42.3672 88.9301 42.416 88.9657 42.4521C89.0013 42.4881 89.0497 42.5083 89.1 42.5083C89.29 42.5083 89.3849 42.6044 89.2899 42.7485L88.6252 43.7572C87.6036 41.3733 86.313 39.1168 84.7792 37.0327V36.9847C87.2008 36.8406 90.7144 34.5831 91.2842 32.5657C92.2813 29.0113 88.9101 27.7145 87.0583 27.7145H78.9865C77.8945 27.7145 77.847 28.5791 78.8441 28.5791C79.4139 28.5791 79.8887 29.0594 79.6513 29.5397L77.847 32.8059C77.7045 33.0941 77.1822 33.0941 76.4225 33.0941H75.6628C75.5679 33.0941 75.4729 33.1421 75.4729 33.2382C75.4762 33.288 75.4973 33.3349 75.5322 33.3703C75.5672 33.4056 75.6136 33.4269 75.6628 33.4303H76.4225C76.9448 33.4303 77.5146 33.4303 77.3247 33.8145L75.188 37.7051C75.0931 37.8973 74.8082 37.8973 74.0959 37.8973H73.3363C73.287 37.9006 73.2406 37.922 73.2057 37.9573C73.1707 37.9926 73.1497 38.0395 73.1463 38.0894C73.1463 38.1855 73.2413 38.2335 73.3363 38.2335H74.0959C74.6657 38.2335 74.8556 38.3296 74.7132 38.6177L71.8643 43.8052C71.532 44.1895 71.1521 44.2375 70.4399 44.2375C69.3953 44.2375 69.4428 45.054 70.4874 45.054H77.4196C78.5117 45.054 78.2268 44.2375 77.6096 44.2375C77.2297 44.2375 76.8499 43.517 77.0873 43.1328L80.6009 36.3122H80.9807C82.5476 36.3122 82.9275 38.954 83.2123 41.7879C83.2598 41.98 82.88 42.028 82.0728 42.028H80.1261C80.0311 42.028 79.9361 42.0761 79.9361 42.1721C79.9395 42.222 79.9606 42.2689 79.9955 42.3042C80.0304 42.3395 80.0768 42.3609 80.1261 42.3642H82.0728C82.5951 42.3642 83.3073 42.3642 83.3073 42.5564C83.3985 43.6699 83.557 44.7767 83.7821 45.8706C83.8771 46.2068 83.3073 46.1588 82.7375 46.1588H80.221C80.1718 46.1621 80.1254 46.1835 80.0904 46.2188C80.0555 46.2541 80.0344 46.3011 80.0311 46.3509C80.0311 46.447 80.1261 46.495 80.221 46.495H82.7375C83.4972 46.495 83.9246 46.495 83.9721 46.6871C85.0166 50.6738 89.6698 53.8439 94.133 53.6518C98.0265 53.5077 101.255 51.3943 102.917 50.0013C105.149 48.2242 108.425 44.4296 109.754 41.6918C109.992 41.2115 110.372 40.539 110.277 40.1067Z" fill="#552583"/>
<path d="M45.3223 22.479C45.0218 22.839 44.6416 23.1223 44.2127 23.3059C43.7837 23.4895 43.318 23.5682 42.8533 23.5357H42.5684L44.2777 20.1254C44.3222 20.0372 44.3903 19.9634 44.4743 19.9124C44.5582 19.8615 44.6546 19.8354 44.7525 19.8372C44.9899 19.8372 44.9424 19.4049 44.6576 19.4049H41.9986C41.7612 19.4049 41.6662 19.8372 41.9036 19.8372C42.1411 19.8372 42.1411 20.0774 42.0461 20.3175L40.5267 23.3435C40.4022 23.4788 40.2336 23.5641 40.0519 23.5837C39.8145 23.6798 39.672 24.064 39.9569 24.064H44.2302C44.5626 24.064 44.6576 23.968 44.705 23.8239L45.6072 22.479C45.7021 22.3349 45.4647 22.2868 45.3223 22.479Z" fill="#552583"/>
<path d="M58.2372 19.501C58.1536 19.5598 58.0542 19.5914 57.9523 19.5914C57.8505 19.5914 57.751 19.5598 57.6674 19.501C57.2648 19.2081 56.786 19.0411 56.2905 19.0207C55.2934 19.0207 54.5811 19.2128 54.1063 20.1734C53.774 20.99 54.1538 21.7105 55.0085 22.0947C55.4358 22.2868 55.9106 22.527 55.7207 23.0073C55.5782 23.3436 55.1984 23.3916 54.8186 23.3916C54.3437 23.3436 53.6315 23.0073 53.5366 22.3349C53.4891 22.0947 53.2517 22.1428 53.1567 22.2868L52.5394 23.4876C52.4445 23.6798 52.6819 23.8239 52.8243 23.7278C52.9326 23.6141 53.0741 23.5386 53.2281 23.5127C53.382 23.4867 53.5401 23.5116 53.679 23.5837C54.1432 23.9098 54.6831 24.1084 55.2459 24.1601C55.6872 24.1981 56.1302 24.1103 56.5246 23.9065C56.9191 23.7027 57.2492 23.3912 57.4775 23.0073C57.9998 22.1908 57.6674 21.3742 56.7653 20.9419C56.243 20.7018 55.8157 20.2695 56.0531 19.8372C56.1955 19.549 56.6228 19.5971 56.8602 19.6451C57.083 19.6797 57.2927 19.7735 57.4679 19.917C57.6431 20.0605 57.7775 20.2484 57.8574 20.4616C57.8673 20.496 57.8868 20.5268 57.9136 20.5502C57.9403 20.5737 57.9732 20.5889 58.0082 20.5939C58.0433 20.599 58.0791 20.5937 58.1112 20.5788C58.1434 20.5638 58.1707 20.5399 58.1897 20.5097L58.4746 19.7411C58.5696 19.5971 58.3322 19.453 58.2372 19.501Z" fill="#552583"/>
<path d="M88.0079 20.7498L88.3878 20.0293C88.5777 19.7411 88.2928 19.4049 87.8655 19.4049H82.8325C82.5001 19.4049 82.5951 19.7892 82.7375 19.7892C83.0699 19.7892 83.1649 20.1734 82.9749 20.5097L81.4555 23.2955C81.2181 23.5837 81.0757 23.6798 80.7908 23.6798C80.5059 23.6798 80.4109 24.064 80.7908 24.064H85.8713C86.0612 24.064 86.1562 24.016 86.2037 23.8719L86.9159 22.9593C87.1058 22.7672 86.7259 22.7672 86.631 22.8632C86.294 23.1764 85.8961 23.415 85.4628 23.5639C85.0295 23.7128 84.5703 23.7686 84.1145 23.7278H83.5447L84.2094 22.1427H84.3519C84.8267 22.1427 85.349 22.1427 85.444 22.479C85.467 22.5073 85.496 22.5301 85.5289 22.5458C85.5617 22.5615 85.5976 22.5696 85.6339 22.5696C85.6702 22.5696 85.706 22.5615 85.7389 22.5458C85.7717 22.5301 85.8007 22.5073 85.8238 22.479L86.3936 21.2782C86.4885 21.086 86.2511 21.086 86.1562 21.1821C85.9188 21.6144 84.8742 21.5183 84.6368 21.5183H84.4943L85.349 19.7892H86.2986C86.5793 19.7888 86.8532 19.8763 87.0828 20.0397C87.3123 20.2031 87.4862 20.4344 87.5806 20.7018C87.6281 20.7978 87.9605 20.8939 88.0079 20.7498Z" fill="#552583"/>
<path d="M63.2702 21.6144L64.932 20.2695V21.6144H63.2702ZM75.188 19.4049H73.4312C73.0513 19.4049 73.1463 19.7892 73.3362 19.7892C73.4351 19.7912 73.5318 19.8195 73.6165 19.8711C73.7013 19.9228 73.7712 19.996 73.8192 20.0835C73.8672 20.1709 73.8918 20.2696 73.8903 20.3697C73.8889 20.4698 73.8616 20.5677 73.811 20.6538L73.0988 21.9987L71.4845 19.5971C71.3162 19.4409 71.0956 19.3551 70.8672 19.3569H69.1104C68.778 19.3569 68.8255 19.7411 69.0154 19.7411C69.3478 19.7411 69.2528 20.0293 69.1579 20.2215L67.7809 22.9593C67.7538 23.0155 67.7106 23.0621 67.6569 23.0931C67.6031 23.124 67.5414 23.1378 67.4798 23.1326C67.4182 23.1274 67.3595 23.1035 67.3116 23.064C67.2637 23.0245 67.2287 22.9712 67.2112 22.9113L66.1191 19.3569C66.0716 19.2128 65.4543 19.2128 65.2644 19.3569L62.558 21.6144H61.181C60.8961 21.6144 60.7537 21.7585 60.7537 21.9026C60.7537 22.0467 60.8961 22.1908 61.181 22.1908H61.8932L61.181 22.8152C60.7537 23.1034 60.3264 23.5357 60.089 23.5357H59.899C59.6141 23.5357 59.4717 23.5837 59.4717 23.7758C59.4717 24.016 59.6141 24.064 59.8516 24.064H62.0357C62.463 24.064 62.3681 23.5357 62.1781 23.5357C62.095 23.5369 62.0135 23.5126 61.9443 23.466C61.8752 23.4194 61.8216 23.3526 61.7907 23.2745C61.7599 23.1965 61.7531 23.1108 61.7715 23.0288C61.7898 22.9467 61.8322 22.8723 61.8932 22.8152L62.558 22.1908H63.8875C64.6472 22.1908 65.2169 23.1034 64.7421 23.3916L64.3623 23.5837C64.2198 23.6798 64.1249 24.064 64.3623 24.064H68.6356C68.968 24.064 68.9205 23.6317 68.778 23.6317C68.3032 23.6317 68.5406 23.0073 68.6356 22.8632L69.7277 20.7018L71.2945 23.7758C71.437 23.968 71.5319 24.064 71.6744 24.064H72.2916C72.3662 24.0702 72.4405 24.0495 72.5013 24.0055C72.5622 23.9616 72.6056 23.8972 72.624 23.8239L74.4283 20.5097C74.7132 19.9333 74.9506 19.7892 75.3304 19.7892C75.4729 19.7892 75.5678 19.4049 75.188 19.4049Z" fill="#552583"/>
<path d="M50.3078 22.0947C49.833 23.0554 49.0258 23.6318 48.551 23.3916C48.0287 23.1514 47.9812 22.1428 48.5035 21.1821C48.9783 20.2215 49.738 19.6451 50.2603 19.8853C50.7826 20.1734 50.7826 21.1341 50.3078 22.0947ZM49.8805 19.1648C48.4086 19.1648 46.8417 19.9333 46.5568 21.5183C46.4807 21.8654 46.484 22.2256 46.5667 22.5711C46.6493 22.9167 46.809 23.2386 47.0336 23.5121C47.2581 23.7856 47.5415 24.0035 47.8622 24.1491C48.1828 24.2947 48.5321 24.3642 48.8834 24.3522C50.4977 24.3522 51.9697 23.2955 52.2545 21.7585C52.5394 20.2215 51.4474 19.1648 49.8805 19.1648Z" fill="#552583"/>
<path d="M80.2685 21.5183H78.3692C77.9894 21.5183 78.0843 21.9026 78.2268 21.9026C78.2717 21.8973 78.3172 21.9024 78.3599 21.9175C78.4026 21.9325 78.4413 21.9571 78.4733 21.9894C78.5053 22.0218 78.5296 22.061 78.5445 22.1042C78.5593 22.1474 78.5643 22.1934 78.5592 22.2388C78.5592 23.0073 78.2268 23.2955 77.5146 23.2955C76.8024 23.2955 76.5175 22.4309 77.0398 21.3262C77.2279 20.9123 77.5289 20.5614 77.9074 20.3146C78.2859 20.0679 78.7261 19.9356 79.1764 19.9333C79.7937 19.9333 80.316 20.0774 80.3634 20.6537C80.4109 20.7978 80.6009 20.7978 80.6958 20.6537L81.1231 19.8372C81.1706 19.7411 81.1231 19.6451 80.9807 19.6451C80.8383 19.597 80.6009 19.7892 80.4109 19.6451C79.855 19.2904 79.216 19.0915 78.5592 19.0687C77.8552 19.0239 77.1535 19.186 76.5385 19.5354C75.9236 19.8848 75.4216 20.4066 75.093 21.038C74.1909 22.575 75.4729 24.2081 76.6599 24.2081C77.3246 24.2081 78.1318 23.7278 78.5592 23.5357L79.034 23.8719C79.1324 23.9817 79.2679 24.0503 79.4138 24.064H79.6038C79.7937 24.064 79.8412 23.8239 79.8886 23.6798L80.6483 21.8545C80.7433 21.6624 80.6958 21.5183 80.2685 21.5183Z" fill="#552583"/>
<path d="M106.716 19.501C106.632 19.5598 106.533 19.5914 106.431 19.5914C106.329 19.5914 106.229 19.5598 106.146 19.501C105.743 19.2081 105.264 19.0411 104.769 19.0207C103.772 19.0207 103.06 19.2128 102.585 20.1734C102.252 20.99 102.632 21.7105 103.534 22.0947C103.914 22.2868 104.389 22.527 104.199 23.0073C104.057 23.3436 103.677 23.3916 103.297 23.3916C102.822 23.3436 102.11 23.0073 102.015 22.3349C101.967 22.0947 101.73 22.1428 101.635 22.2868L101.018 23.4876C100.923 23.6798 101.16 23.8239 101.303 23.7278C101.411 23.6141 101.553 23.5386 101.706 23.5127C101.86 23.4867 102.019 23.5116 102.157 23.5837C102.622 23.9098 103.161 24.1084 103.724 24.1601C104.721 24.1601 105.434 23.8719 105.956 23.0073C106.478 22.1908 106.193 21.3742 105.244 20.9419C104.721 20.7018 104.342 20.2695 104.531 19.8372C104.674 19.549 105.101 19.5971 105.339 19.6451C105.561 19.6797 105.771 19.7735 105.946 19.917C106.121 20.0605 106.256 20.2484 106.336 20.4616C106.346 20.496 106.365 20.5268 106.392 20.5502C106.419 20.5737 106.452 20.5889 106.487 20.5939C106.522 20.599 106.557 20.5937 106.59 20.5788C106.622 20.5638 106.649 20.5399 106.668 20.5097L106.953 19.7411C107.048 19.5971 106.811 19.453 106.716 19.501Z" fill="#552583"/>
<path d="M93.3258 22.479C92.6611 23.2955 91.8064 23.5357 90.8093 23.5357H90.5719L92.2813 20.1254C92.3156 20.0295 92.3816 19.9485 92.4681 19.896C92.5545 19.8435 92.6562 19.8227 92.7561 19.8372C92.946 19.8372 92.946 19.4049 92.6611 19.4049H89.9547C89.7173 19.4049 89.6698 19.8372 89.8597 19.8372C90.0971 19.8372 90.1446 20.0774 90.0496 20.3175L88.4827 23.3435C88.3774 23.4777 88.2237 23.5641 88.0554 23.5837C87.818 23.6798 87.6756 24.064 87.913 24.064H92.1863C92.5187 24.064 92.6136 23.968 92.7086 23.8239L93.5632 22.479C93.7057 22.3349 93.4208 22.2868 93.3258 22.479Z" fill="#552583"/>
<path d="M99.7833 19.7892C100.061 19.8026 100.328 19.8956 100.555 20.0572C100.782 20.2187 100.959 20.4423 101.065 20.7018C101.113 20.7978 101.398 20.8939 101.493 20.7498L101.873 20.0293C102.015 19.7411 101.778 19.4049 101.35 19.4049H96.3172C95.9374 19.4049 96.0798 19.7892 96.2222 19.7892C96.5546 19.7892 96.6496 20.1734 96.4122 20.5097L94.9402 23.2955C94.8668 23.4186 94.7619 23.5193 94.6365 23.5869C94.5111 23.6546 94.37 23.6866 94.228 23.6798C93.9906 23.6798 93.8957 24.064 94.228 24.064H99.3085C99.5459 24.064 99.6409 24.016 99.6884 23.8719L100.401 22.9593C100.543 22.7672 100.211 22.7672 100.068 22.8632C99.742 23.178 99.3527 23.4181 98.9267 23.5673C98.5007 23.7165 98.048 23.7712 97.5992 23.7278H96.9819L97.6942 22.1427H97.8366C98.2639 22.1427 98.7862 22.1427 98.9287 22.479C98.9467 22.5069 98.9714 22.5298 99.0004 22.5457C99.0294 22.5615 99.0619 22.5698 99.0948 22.5698C99.1278 22.5698 99.1603 22.5615 99.1893 22.5457C99.2183 22.5298 99.243 22.5069 99.261 22.479L99.8783 21.2782C99.9733 21.086 99.6884 21.086 99.6409 21.1821C99.4035 21.6144 98.3589 21.5183 98.074 21.5183H97.9316L98.8337 19.7892H99.7833Z" fill="#552583"/>
<path d="M61.0386 7.68513C58.6645 7.54103 56.7178 7.44497 55.056 7.6371C55.5228 6.47344 56.2943 5.4605 57.2876 4.70714C58.8191 4.78345 60.3428 4.97612 61.8458 5.28353C66.0716 6.10007 72.624 8.74183 75.4729 12.5364C71.6744 9.99066 65.4544 8.02135 61.0386 7.68513ZM53.9639 7.78119C52.2994 7.97238 50.6496 8.27728 49.0258 8.6938C48.7884 8.06938 48.1712 6.1481 47.9338 5.52369C50.5427 4.78951 53.2569 4.51333 55.9581 4.70714C55.2934 5.2355 54.2013 7.20481 53.9639 7.78119ZM42.0461 11.3356C41.7612 10.8552 40.3842 9.55838 39.6245 9.31822C41.3814 7.97332 45.4173 6.10007 46.9841 5.76385C47.2216 6.24417 47.9338 8.16545 48.1712 8.93396C46.7942 9.22215 43.1856 10.567 42.0461 11.3356ZM80.0311 15.7065C79.6513 15.2262 79.129 14.2655 75.3305 10.9033C69.6802 5.95598 62.2256 3.69847 55.2459 3.69847C50.1179 3.69847 45.6072 4.85124 40.5742 7.6371C34.2117 11.1915 31.6002 15.2742 30.9355 16.0907C30.4607 16.7151 30.4132 17.0514 30.6981 17.2435C30.9355 17.3876 31.3628 16.9073 31.7427 16.3789C33.6419 13.8332 36.1584 11.3356 38.7699 9.84657C39.5771 9.99067 40.7166 11.1434 41.1439 11.7198C39.2413 12.9172 37.4028 14.2159 35.6361 15.6104C34.734 16.3309 34.4491 16.7151 34.6865 17.0033C34.8764 17.2435 35.5886 16.8112 36.1584 16.3309C37.889 14.939 39.7135 13.671 41.6188 12.5364C42.6633 13.7372 42.331 15.9466 41.9511 16.3789C41.7612 16.6671 41.7612 16.9073 41.9511 17.0514C42.1885 17.1955 42.3785 16.8592 42.6633 16.427C43.3756 15.4183 43.0907 13.0167 42.5209 12.1521C44.3252 10.9993 46.8892 10.2308 48.4561 9.8946C48.5985 10.1348 50.4978 15.7545 50.8776 16.7632C51.0675 17.3396 51.2575 18.012 51.6848 17.8679C51.9222 17.8199 51.7797 17.1955 51.5423 16.5711C51.2575 15.8025 49.833 11.0954 49.3582 9.70247C49.8805 9.41428 53.0143 8.78986 53.8214 8.78986C53.4416 10.8552 54.866 11.7198 56.4804 12.7765C57.3351 13.3529 62.8429 16.523 63.9824 17.2435C64.6472 17.6758 65.1695 17.9159 65.3119 17.7238C65.4544 17.5317 65.027 17.0514 64.4098 16.7151C63.935 16.427 58.807 13.4009 56.6703 12.056C55.1509 11.0474 54.3437 10.0387 54.6761 8.64577C55.1984 8.50167 56.7178 8.50167 58.3322 8.50167C69.2529 8.59774 77.9894 14.8899 78.939 15.9466C79.4613 16.427 80.1261 16.8592 80.411 16.6671C80.5534 16.523 80.2685 15.9466 80.0311 15.7065Z" fill="black"/>
<path d="M82.4052 53.4116C82.8325 52.6911 83.1174 52.2588 82.785 52.0667C82.5001 51.8746 82.1678 52.595 81.7879 53.2675C80.5059 55.477 79.129 57.3502 75.9952 60.2321C73.388 62.5985 70.3801 64.4697 67.1162 65.7558C65.9292 62.3936 61.4185 48.08 61.276 47.6477C61.1336 47.0233 60.9436 46.8792 60.7537 46.9273C60.5163 47.0233 60.6587 47.3596 60.8012 47.8879C60.8962 48.4163 66.2615 65.4196 66.4515 65.996C65.4069 66.5243 61.0386 67.7732 58.0473 67.8692C55.3409 67.9653 52.1596 67.8692 50.5452 67.485C48.6935 65.9479 44.4202 59.8479 42.8058 56.6297C40.9065 52.7872 39.6246 49.2808 39.2922 47.7918C39.1497 47.0714 38.9598 46.543 38.58 46.6391C38.2001 46.6871 38.4375 47.2635 38.6749 48.032C39.5483 51.0524 40.7091 53.98 42.1411 56.7738C44.2777 60.9526 48.0287 65.8999 49.1208 67.2448C44.9285 66.3203 40.979 64.5028 37.5354 61.9133C34.1167 59.3195 31.1729 56.0533 29.701 53.6517C29.4636 53.2195 29.1787 52.6431 28.7988 52.8832C28.6089 53.0273 28.8463 53.4596 29.0837 53.9399C31.2204 57.8305 36.4433 63.3542 43.1856 66.3802C50.9726 69.8866 59.4717 69.6944 67.1162 66.7165C73.7636 64.1227 79.5563 58.7431 82.4052 53.4116Z" fill="black"/>
</svg>
