<svg width="110" height="64" viewBox="0 0 110 64" fill="none" xmlns="http://www.w3.org/2000/svg">
<path fill-rule="evenodd" clip-rule="evenodd" d="M43.7616 62.4346H36.5977V1.56108H47.6835L55.0997 51.7765C53.992 39.8418 52.5421 20.572 52.5421 10.4272V1.56108H59.7038V62.4346H49.5568L42.7351 13.6648C43.3339 24.5774 43.7594 37.622 43.7594 44.9548V62.4325M63.7969 62.4346V1.56108H73.9417C80.6779 1.56108 84.8543 5.22641 84.8543 13.7525V22.7041C84.8543 28.247 83.1478 31.0591 80.7613 32.509C83.1478 34.0444 84.8543 36.7709 84.8543 41.4606V50.3267C84.8543 58.6816 80.4213 62.4346 73.9417 62.4346H63.7969ZM71.9808 9.23389V29.3547H73.003C75.9027 29.3547 76.6704 28.247 76.6704 24.9217V13.3269C76.6704 10.5127 75.8172 9.23389 73.3451 9.23389H71.9808ZM71.9808 36.0053V54.7597H73.3451C75.9027 54.7597 76.6704 53.3119 76.6704 50.4122V40.0962C76.6704 37.1131 75.7295 36.0053 73.003 36.0053H71.9808ZM100.191 51.0088H95.0762L94.3919 62.4346H86.1246L92.0909 1.56108H103.686L109.485 62.4346H100.874L100.191 51.0088ZM95.4162 44.1037H99.7658L99.0815 32.9345C98.8271 28.5015 98.1449 14.4346 97.6338 6.84523H97.2917L96.0984 32.9345L95.4162 44.1037ZM22.409 0H7.42477C5.66807 0.00113299 3.98364 0.699482 2.74146 1.94166C1.49929 3.18384 0.800938 4.86826 0.799805 6.62497V57.3665C0.800369 59.1241 1.49826 60.8098 2.74032 62.0534C3.98237 63.2971 5.66711 63.9972 7.42477 64H22.3983C24.1575 63.9977 25.8441 63.2983 27.0887 62.055C28.3332 60.8116 29.0343 59.1257 29.0382 57.3665V6.62497C29.0354 4.86804 28.3359 3.18395 27.0932 1.94202C25.8505 0.70009 24.1659 0.00169633 22.409 0Z" fill="#FFFFFE"/>
<path fill-rule="evenodd" clip-rule="evenodd" d="M18.6923 11.7316L18.7073 11.9497C19.1649 12.2149 19.3959 12.433 19.8578 12.7281C21.0789 13.498 22.5844 14.8666 22.394 19.5777C22.7362 20.6041 22.888 22.6228 23.2066 23.2708C23.8418 24.5325 24.2673 25.3537 24.4534 26.5448C24.4534 26.5448 24.6351 28.3988 24.8746 28.5336C26.1385 28.8201 25.7728 28.9441 25.9589 29.1601C26.1556 29.4146 26.8848 29.4018 26.8848 30.0818C27.1371 30.4197 27.3253 30.7725 27.4665 31.1382V6.62497C27.4653 5.2834 26.9323 3.99701 25.9843 3.04777C25.0363 2.09854 23.7506 1.56391 22.409 1.56108H17.5675C18.3459 1.83908 18.7864 2.16413 19.0409 2.68164C19.6653 2.7351 20.4095 4.13579 19.2505 6.20797C19.7637 6.55012 19.3638 7.05907 18.996 7.65143C18.8891 7.84175 18.7715 8.17963 18.4272 8.15611C17.9888 9.08206 17.4563 9.97808 17.0564 10.0337C16.9345 10.1834 16.8469 10.5811 17.0286 10.7693C17.6188 11.0323 18.3374 11.3959 18.6923 11.7316ZM27.4665 34.4592C27.132 35.3 26.5524 36.0208 25.8031 36.5279C25.0538 37.0351 24.1692 37.3053 23.2644 37.3034C22.6717 37.3037 22.0847 37.1872 21.537 36.9605C20.9893 36.7339 20.4916 36.4016 20.0724 35.9826C19.6532 35.5635 19.3206 35.066 19.0938 34.5185C18.8669 33.9709 18.7501 33.384 18.7501 32.7912C18.7501 30.6635 20.2128 28.8778 22.1994 28.401C21.6798 27.0965 20.5806 24.9858 20.2534 24.2951C19.9455 23.6065 19.2013 19.3125 19.0409 18.4635C19.0046 18.2775 17.0928 19.5734 17.0885 19.6525C16.9773 19.7594 15.6557 23.2152 15.6001 23.4012C15.5723 23.5188 15.5702 23.9786 15.5702 23.9786C15.5702 23.9786 16.2203 24.0599 16.5945 25.1954C16.9645 26.3288 18.0914 30.4624 18.0914 30.4624C18.0914 30.4624 17.7878 30.7789 17.7749 30.7618C19.2013 35.5349 18.703 37.59 19.3424 38.9906C20.1465 40.9623 20.3646 40.7036 21.0532 42.363C21.5493 43.5712 22.1011 48.325 22.285 48.5346C23.0548 49.5119 23.4697 50.2732 23.4697 50.8228C23.4697 51.3788 22.8174 53.0147 23.0548 53.9685C23.2002 54.5309 23.2751 55.7862 23.536 56.0257C23.536 56.0257 23.7755 56.4983 23.6579 56.71C23.6236 56.7805 23.5552 56.8896 23.5873 56.9773C24.0107 58.4742 25.3836 61.0318 23.1617 62.3705H23.2088C24.4003 62.185 25.4856 61.5777 26.2671 60.6593C27.0485 59.7409 27.4742 58.5724 27.4665 57.3665V34.4592Z" fill="#B52532"/>
<path fill-rule="evenodd" clip-rule="evenodd" d="M21.7653 56.3935C20.9527 55.6664 21.4959 55.3606 21.4617 55.074C20.927 52.8565 19.1649 51.5156 20.0759 50.7843C19.8514 50.0529 19.3938 49.1334 19.4109 49.1355C16.6672 47.5595 14.3299 44.9997 13.9343 44.6234C13.4531 44.1016 12.6319 43.5755 12.4801 43.1521C11.8193 42.5469 8.58596 37.9599 7.83322 36.2705L6.5202 36.0845C5.92143 33.6466 3.92838 31.6001 3.8792 29.1558C3.86209 28.2299 4.29833 26.2497 4.46086 25.8562C4.62124 25.4542 5.38468 24.7976 5.38468 24.7976V24.1433C2.52127 24.2245 3.34458 23.9316 2.85273 22.8174C2.5063 22.0476 2.75436 21.8765 2.87839 21.3419C3.26332 19.7658 4.53998 17.3323 5.06604 16.2267C5.22857 15.6685 5.78029 14.3234 5.78029 14.3234C7.91448 9.97808 8.71213 10.2967 11.2462 10.0508L11.3702 9.87116C13.9107 9.75996 13.4937 9.56963 13.8509 7.12323C13.483 7.28148 13.3718 6.35552 13.3718 6.35552C13.1708 4.96552 13.7568 5.22855 14.0348 5.20075C14.0968 2.91259 14.3299 2.18979 15.9808 1.55894H7.42691C6.76127 1.55894 6.10215 1.69012 5.48724 1.94498C4.87232 2.19984 4.31366 2.57338 3.84318 3.04426C3.3727 3.51513 2.99962 4.07411 2.74528 4.68925C2.49094 5.30438 2.36032 5.9636 2.36088 6.62924V57.3686C2.36088 60.1679 4.62766 62.4368 7.42905 62.4368H22.409C20.694 61.5087 21.7076 59.7423 21.7653 56.3935Z" fill="#253B73"/>
</svg>
