<svg width="48" height="48" viewBox="0 0 48 48" fill="none" xmlns="http://www.w3.org/2000/svg">
<path d="M40.0611 19.0611L25.0611 34.0611C24.9218 34.2006 24.7564 34.3112 24.5743 34.3867C24.3922 34.4622 24.197 34.501 23.9999 34.501C23.8027 34.501 23.6075 34.4622 23.4254 34.3867C23.2433 34.3112 23.0779 34.2006 22.9386 34.0611L7.93861 19.0611C7.65715 18.7796 7.49902 18.3979 7.49902 17.9999C7.49902 17.6018 7.65715 17.2201 7.93861 16.9386C8.22007 16.6571 8.60181 16.499 8.99986 16.499C9.3979 16.499 9.77965 16.6571 10.0611 16.9386L23.9999 30.8792L37.9386 16.9386C38.078 16.7992 38.2434 16.6887 38.4255 16.6133C38.6076 16.5378 38.8028 16.499 38.9999 16.499C39.197 16.499 39.3921 16.5378 39.5742 16.6133C39.7563 16.6887 39.9217 16.7992 40.0611 16.9386C40.2005 17.078 40.311 17.2434 40.3864 17.4255C40.4619 17.6076 40.5007 17.8028 40.5007 17.9999C40.5007 18.1969 40.4619 18.3921 40.3864 18.5742C40.311 18.7563 40.2005 18.9217 40.0611 19.0611Z" fill="#100F0F"/>
</svg>
