<svg width="48" height="48" viewBox="0 0 48 48" fill="none" xmlns="http://www.w3.org/2000/svg">
<path d="M19.5002 26.25C19.5002 26.695 19.3682 27.13 19.121 27.5C18.8738 27.87 18.5224 28.1584 18.1112 28.3287C17.7001 28.499 17.2477 28.5435 16.8112 28.4567C16.3748 28.3699 15.9739 28.1556 15.6592 27.8409C15.3445 27.5263 15.1302 27.1254 15.0434 26.6889C14.9566 26.2525 15.0012 25.8001 15.1715 25.3889C15.3418 24.9778 15.6301 24.6264 16.0001 24.3792C16.3702 24.1319 16.8052 24 17.2502 24C17.8469 24 18.4192 24.237 18.8412 24.659C19.2631 25.0809 19.5002 25.6532 19.5002 26.25ZM30.7502 24C30.3052 24 29.8702 24.1319 29.5001 24.3792C29.1301 24.6264 28.8418 24.9778 28.6715 25.3889C28.5012 25.8001 28.4566 26.2525 28.5434 26.6889C28.6302 27.1254 28.8445 27.5263 29.1592 27.8409C29.4739 28.1556 29.8748 28.3699 30.3112 28.4567C30.7477 28.5435 31.2001 28.499 31.6112 28.3287C32.0224 28.1584 32.3738 27.87 32.621 27.5C32.8682 27.13 33.0002 26.695 33.0002 26.25C33.0002 25.6532 32.7631 25.0809 32.3412 24.659C31.9192 24.237 31.3469 24 30.7502 24ZM44.7096 36.1687L32.1471 41.7393C31.7693 41.9073 31.3612 41.9962 30.9479 42.0006C30.5345 42.005 30.1246 41.9249 29.7434 41.7651C29.3621 41.6053 29.0176 41.3692 28.7309 41.0713C28.4443 40.7735 28.2215 40.4202 28.0764 40.0331L26.5558 35.9081C25.7158 35.9643 24.8639 35.9931 24.0002 35.9943C23.1364 35.9956 22.2846 35.9668 21.4446 35.9081L19.9239 40.0331C19.7786 40.42 19.5558 40.7731 19.2691 41.0708C18.9824 41.3685 18.6378 41.6045 18.2567 41.7643C17.8755 41.9241 17.4657 42.0043 17.0524 42C16.6391 41.9957 16.2311 41.907 15.8533 41.7393L3.29081 36.1687C2.64241 35.8852 2.11573 35.3807 1.80462 34.7451C1.4935 34.1095 1.41818 33.3841 1.59206 32.6981L7.12518 10.875C7.27121 10.3074 7.57957 9.79477 8.0125 9.3998C8.44544 9.00483 8.98415 8.74468 9.56268 8.65121L16.3239 7.53933C17.0693 7.41945 17.8326 7.58108 18.4654 7.99278C19.0982 8.40448 19.5553 9.03683 19.7477 9.76683L20.3589 12.1743C21.5502 12.0581 22.7639 12 24.0002 12C25.2364 12 26.4489 12.0581 27.6377 12.1743L28.2489 9.76683C28.441 9.0366 28.898 8.404 29.5309 7.99223C30.1638 7.58046 30.9273 7.41901 31.6727 7.53933L38.4377 8.65121C39.0162 8.74468 39.5549 9.00483 39.9879 9.3998C40.4208 9.79477 40.7292 10.3074 40.8752 10.875L46.4121 32.6962C46.5862 33.3829 46.5105 34.1091 46.1987 34.7452C45.8868 35.3813 45.359 35.8858 44.7096 36.1687ZM43.5002 33.4275L37.9633 11.625C37.9633 11.625 37.9633 11.625 37.9483 11.625L31.1871 10.5C31.1822 10.4972 31.1767 10.4957 31.1711 10.4957C31.1655 10.4957 31.16 10.4972 31.1552 10.5L30.6246 12.5887C31.5621 12.765 32.4996 12.975 33.4052 13.23C33.7622 13.321 34.0733 13.5402 34.279 13.8459C34.4848 14.1515 34.5708 14.5222 34.5208 14.8873C34.4707 15.2523 34.288 15.5862 34.0076 15.8252C33.7271 16.0642 33.3685 16.1916 33.0002 16.1831C32.8633 16.1827 32.727 16.1638 32.5952 16.1268C29.7938 15.3667 26.9028 14.9876 24.0002 15C21.0976 14.987 18.2066 15.3654 15.4052 16.125C15.2138 16.1841 15.0125 16.2044 14.8132 16.1845C14.6139 16.1646 14.4206 16.105 14.2447 16.0092C14.0688 15.9134 13.9138 15.7833 13.789 15.6266C13.6642 15.47 13.572 15.2899 13.5179 15.097C13.4638 14.9042 13.4489 14.7024 13.474 14.5037C13.4991 14.305 13.5638 14.1133 13.6642 13.94C13.7646 13.7666 13.8987 13.6152 14.0586 13.4945C14.2185 13.3739 14.401 13.2865 14.5952 13.2375C15.4989 12.9825 16.4289 12.7725 17.3739 12.5962L16.8433 10.5C16.8433 10.5 16.8433 10.5 16.8208 10.5L10.0521 11.6118C10.0465 11.6103 10.0407 11.6103 10.0352 11.6118L4.50018 33.4368L17.0627 39C17.069 39.0034 17.0761 39.0052 17.0833 39.0052C17.0905 39.0052 17.0976 39.0034 17.1039 39L18.3752 35.5725C17.1015 35.3776 15.8405 35.1071 14.5989 34.7625C14.2291 34.6443 13.9195 34.3874 13.7353 34.0457C13.551 33.704 13.5063 33.3041 13.6107 32.9302C13.7151 32.5563 13.9605 32.2374 14.2951 32.0406C14.6297 31.8438 15.0277 31.7845 15.4052 31.875C18.2064 32.6354 21.0976 33.0138 24.0002 33C26.9028 33.0138 29.7939 32.6354 32.5952 31.875C32.9783 31.7675 33.3885 31.8167 33.7354 32.0117C34.0822 32.2067 34.3375 32.5315 34.4449 32.9146C34.5523 33.2978 34.5031 33.7079 34.3081 34.0548C34.1131 34.4017 33.7883 34.6569 33.4052 34.7643C32.1623 35.1085 30.9001 35.3784 29.6252 35.5725L30.8908 39C30.8969 39.0032 30.9036 39.005 30.9105 39.005C30.9174 39.005 30.9241 39.0032 30.9302 39L43.5002 33.4275Z" fill="#100F0F"/>
</svg>
