<svg width="48" height="48" viewBox="0 0 48 48" fill="none" xmlns="http://www.w3.org/2000/svg">
<path d="M24 4.5C20.1433 4.5 16.3731 5.64366 13.1664 7.78634C9.95963 9.92903 7.46027 12.9745 5.98436 16.5377C4.50845 20.1008 4.12228 24.0216 4.8747 27.8043C5.62711 31.5869 7.4843 35.0615 10.2114 37.7886C12.9386 40.5157 16.4131 42.3729 20.1957 43.1253C23.9784 43.8777 27.8992 43.4916 31.4623 42.0156C35.0255 40.5397 38.071 38.0404 40.2137 34.8336C42.3564 31.6269 43.5 27.8567 43.5 24C43.4945 18.83 41.4383 13.8732 37.7826 10.2174C34.1268 6.56167 29.1701 4.50546 24 4.5ZM25.5 40.4306V28.5H30C30.3978 28.5 30.7794 28.342 31.0607 28.0607C31.342 27.7794 31.5 27.3978 31.5 27C31.5 26.6022 31.342 26.2206 31.0607 25.9393C30.7794 25.658 30.3978 25.5 30 25.5H25.5V21C25.5 20.2044 25.8161 19.4413 26.3787 18.8787C26.9413 18.3161 27.7044 18 28.5 18H31.5C31.8978 18 32.2794 17.842 32.5607 17.5607C32.842 17.2794 33 16.8978 33 16.5C33 16.1022 32.842 15.7206 32.5607 15.4393C32.2794 15.158 31.8978 15 31.5 15H28.5C26.9087 15 25.3826 15.6321 24.2574 16.7574C23.1322 17.8826 22.5 19.4087 22.5 21V25.5H18C17.6022 25.5 17.2207 25.658 16.9393 25.9393C16.658 26.2206 16.5 26.6022 16.5 27C16.5 27.3978 16.658 27.7794 16.9393 28.0607C17.2207 28.342 17.6022 28.5 18 28.5H22.5V40.4306C18.2715 40.0446 14.3546 38.0433 11.564 34.8431C8.77334 31.6428 7.32389 27.4899 7.5171 23.2482C7.7103 19.0065 9.53129 15.0025 12.6013 12.0692C15.6713 9.13586 19.7539 7.49895 24 7.49895C28.2461 7.49895 32.3288 9.13586 35.3987 12.0692C38.4687 15.0025 40.2897 19.0065 40.4829 23.2482C40.6761 27.4899 39.2267 31.6428 36.4361 34.8431C33.6455 38.0433 29.7285 40.0446 25.5 40.4306Z" fill="#100F0F"/>
</svg>
