<svg width="48" height="48" viewBox="0 0 48 48" fill="none" xmlns="http://www.w3.org/2000/svg">
<path d="M43.0612 40.9387L33.6731 31.5524C36.3941 28.2856 37.751 24.0955 37.4614 19.8538C37.1718 15.6121 35.258 11.6453 32.1182 8.77864C28.9784 5.91198 24.8543 4.36617 20.6038 4.46277C16.3533 4.55937 12.3036 6.29094 9.29728 9.29728C6.29094 12.3036 4.55937 16.3533 4.46277 20.6038C4.36617 24.8543 5.91198 28.9784 8.77864 32.1182C11.6453 35.258 15.6121 37.1718 19.8538 37.4614C24.0955 37.751 28.2856 36.3941 31.5524 33.6731L40.9387 43.0612C41.0781 43.2006 41.2435 43.3111 41.4256 43.3865C41.6077 43.462 41.8029 43.5008 41.9999 43.5008C42.197 43.5008 42.3922 43.462 42.5743 43.3865C42.7564 43.3111 42.9218 43.2006 43.0612 43.0612C43.2006 42.9218 43.3111 42.7564 43.3865 42.5743C43.462 42.3922 43.5008 42.197 43.5008 41.9999C43.5008 41.8029 43.462 41.6077 43.3865 41.4256C43.3111 41.2435 43.2006 41.0781 43.0612 40.9387ZM7.49994 20.9999C7.49994 18.3299 8.2917 15.7198 9.7751 13.4997C11.2585 11.2797 13.3669 9.54935 15.8337 8.52757C18.3005 7.50578 21.0149 7.23844 23.6337 7.75934C26.2524 8.28024 28.6579 9.56599 30.5459 11.454C32.4339 13.342 33.7196 15.7475 34.2405 18.3662C34.7614 20.985 34.4941 23.6994 33.4723 26.1662C32.4505 28.633 30.7202 30.7414 28.5001 32.2248C26.2801 33.7082 23.67 34.4999 20.9999 34.4999C17.4207 34.496 13.9893 33.0724 11.4584 30.5415C8.9275 28.0106 7.50391 24.5791 7.49994 20.9999Z" fill="#100F0F"/>
</svg>
