<svg width="48" height="48" viewBox="0 0 48 48" fill="none" xmlns="http://www.w3.org/2000/svg">
<path d="M39 6H9C8.20435 6 7.44129 6.31607 6.87868 6.87868C6.31607 7.44129 6 8.20435 6 9V36C6 36.7956 6.31607 37.5587 6.87868 38.1213C7.44129 38.6839 8.20435 39 9 39H12V45C11.9999 45.2851 12.081 45.5644 12.234 45.805C12.3869 46.0457 12.6052 46.2377 12.8633 46.3588C13.1215 46.4798 13.4088 46.5247 13.6916 46.4883C13.9744 46.4519 14.2409 46.3356 14.46 46.1531L23.0438 39H30.9563C31.6586 39.0002 32.3387 38.7541 32.8781 38.3044L40.92 31.6012C41.2586 31.3204 41.531 30.9682 41.7177 30.5698C41.9044 30.1715 42.0008 29.7368 42 29.2969V9C42 8.20435 41.6839 7.44129 41.1213 6.87868C40.5587 6.31607 39.7957 6 39 6ZM39 29.2969L30.9563 36H23.0438C22.3415 35.9998 21.6613 36.2459 21.1219 36.6956L15 41.7975V37.5C15 37.1022 14.842 36.7206 14.5607 36.4393C14.2794 36.158 13.8978 36 13.5 36H9V9H39V29.2969ZM30 25.5V16.5C30 16.1022 30.158 15.7206 30.4393 15.4393C30.7206 15.158 31.1022 15 31.5 15C31.8978 15 32.2794 15.158 32.5607 15.4393C32.842 15.7206 33 16.1022 33 16.5V25.5C33 25.8978 32.842 26.2794 32.5607 26.5607C32.2794 26.842 31.8978 27 31.5 27C31.1022 27 30.7206 26.842 30.4393 26.5607C30.158 26.2794 30 25.8978 30 25.5ZM21 25.5V16.5C21 16.1022 21.158 15.7206 21.4393 15.4393C21.7206 15.158 22.1022 15 22.5 15C22.8978 15 23.2794 15.158 23.5607 15.4393C23.842 15.7206 24 16.1022 24 16.5V25.5C24 25.8978 23.842 26.2794 23.5607 26.5607C23.2794 26.842 22.8978 27 22.5 27C22.1022 27 21.7206 26.842 21.4393 26.5607C21.158 26.2794 21 25.8978 21 25.5Z" fill="#100F0F"/>
</svg>
