<svg width="48" height="48" viewBox="0 0 48 48" fill="none" xmlns="http://www.w3.org/2000/svg">
<path d="M46.3856 12.926C46.2721 12.6519 46.0799 12.4176 45.8333 12.2527C45.5867 12.0879 45.2967 11.9998 45 11.9998H39.2944C38.4967 10.6426 37.3613 9.51495 35.9988 8.72641C34.6363 7.93788 33.0929 7.51531 31.5188 7.49978C30.346 7.4844 29.1819 7.70373 28.0952 8.14488C27.0084 8.58602 26.0209 9.24007 25.1906 10.0685C24.3361 10.9071 23.6579 11.908 23.1959 13.0124C22.7338 14.1169 22.4972 15.3026 22.5 16.4998V17.6417C14.9512 15.6504 8.77687 9.50978 8.71125 9.44415C8.51001 9.24113 8.25494 9.09984 7.97609 9.03692C7.69724 8.974 7.40622 8.99206 7.1373 9.089C6.86837 9.18593 6.63274 9.35768 6.45816 9.58404C6.28358 9.8104 6.17731 10.0819 6.15187 10.3667C5.34375 19.3273 7.94625 25.3235 10.2769 28.7754C11.4133 30.4818 12.7957 32.0109 14.3794 33.3129C11.5237 36.5998 7.0275 38.3267 6.97875 38.3454C6.76709 38.4247 6.57608 38.5508 6.41999 38.7142C6.26391 38.8777 6.14678 39.0743 6.07736 39.2894C6.00795 39.5045 5.98804 39.7325 6.01912 39.9564C6.05021 40.1803 6.13148 40.3942 6.25687 40.5823C6.3975 40.7923 6.96 41.5292 8.33437 42.2173C10.0331 43.0685 12.2775 43.4998 15 43.4998C28.2506 43.4998 39.3225 33.296 40.4531 20.1673L46.0613 14.561C46.271 14.3511 46.4137 14.0838 46.4715 13.7927C46.5292 13.5017 46.4993 13.2001 46.3856 12.926ZM37.9481 18.4404C37.691 18.6982 37.5363 19.0408 37.5131 19.4042C36.75 31.2335 26.865 40.4998 15 40.4998C13.02 40.4998 11.625 40.2373 10.6462 39.9223C12.8044 38.7504 15.8137 36.7348 17.7487 33.8323C17.8623 33.6616 17.9397 33.4695 17.9761 33.2677C18.0125 33.066 18.0072 32.8589 17.9605 32.6593C17.9137 32.4597 17.8266 32.2718 17.7044 32.1072C17.5822 31.9426 17.4275 31.8048 17.25 31.7023C17.1619 31.6517 9.01687 26.7635 9 13.7023C12 16.1398 17.4844 19.9217 23.7506 20.9754C23.9654 21.0116 24.1855 21.0006 24.3955 20.9432C24.6056 20.8858 24.8007 20.7833 24.9672 20.6429C25.1336 20.5024 25.2675 20.3274 25.3595 20.13C25.4516 19.9326 25.4995 19.7176 25.5 19.4998V16.4998C25.4983 15.6996 25.6567 14.9072 25.9658 14.1692C26.2749 13.4311 26.7286 12.7624 27.3 12.2023C27.8478 11.6535 28.5 11.22 29.2182 10.9276C29.9364 10.6352 30.7059 10.4897 31.4812 10.4998C33.855 10.5298 36.0731 11.9773 37.0012 14.1017C37.1182 14.3687 37.3106 14.5959 37.5547 14.7554C37.7987 14.915 38.084 14.9999 38.3756 14.9998H41.3756L37.9481 18.4404Z" fill="#100F0F"/>
</svg>
