<svg width="48" height="48" viewBox="0 0 48 48" fill="none" xmlns="http://www.w3.org/2000/svg">
<path d="M43.2973 39.7502C40.4416 34.8133 36.041 31.2733 30.9054 29.5952C33.4457 28.083 35.4194 25.7786 36.5233 23.0361C37.6272 20.2936 37.8004 17.2645 37.0161 14.414C36.2319 11.5636 34.5337 9.04933 32.1822 7.25745C29.8308 5.46557 26.9561 4.49512 23.9998 4.49512C21.0434 4.49512 18.1688 5.46557 15.8173 7.25745C13.4659 9.04933 11.7676 11.5636 10.9834 14.414C10.1992 17.2645 10.3723 20.2936 11.4763 23.0361C12.5802 25.7786 14.5538 28.083 17.0942 29.5952C11.9585 31.2715 7.5579 34.8115 4.70228 39.7502C4.59755 39.921 4.52809 40.111 4.49799 40.309C4.46789 40.507 4.47776 40.7091 4.52701 40.9032C4.57626 41.0974 4.6639 41.2797 4.78476 41.4395C4.90562 41.5992 5.05725 41.7331 5.2307 41.8333C5.40415 41.9335 5.59591 41.9979 5.79466 42.0228C5.99342 42.0477 6.19515 42.0325 6.38794 41.9782C6.58073 41.9238 6.76069 41.8314 6.91719 41.7064C7.07369 41.5813 7.20356 41.4262 7.29915 41.2502C10.8317 35.1452 17.0754 31.5002 23.9998 31.5002C30.9242 31.5002 37.1679 35.1452 40.7004 41.2502C40.796 41.4262 40.9259 41.5813 41.0824 41.7064C41.2389 41.8314 41.4188 41.9238 41.6116 41.9782C41.8044 42.0325 42.0061 42.0477 42.2049 42.0228C42.4036 41.9979 42.5954 41.9335 42.7689 41.8333C42.9423 41.7331 43.0939 41.5992 43.2148 41.4395C43.3356 41.2797 43.4233 41.0974 43.4725 40.9032C43.5218 40.7091 43.5317 40.507 43.5016 40.309C43.4715 40.111 43.402 39.921 43.2973 39.7502ZM13.4998 18.0002C13.4998 15.9235 14.1156 13.8934 15.2693 12.1667C16.4231 10.44 18.063 9.0942 19.9816 8.29948C21.9002 7.50476 24.0114 7.29683 26.0482 7.70197C28.085 8.10712 29.9559 9.10715 31.4244 10.5756C32.8928 12.044 33.8929 13.915 34.298 15.9518C34.7032 17.9886 34.4952 20.0998 33.7005 22.0184C32.9058 23.937 31.56 25.5769 29.8333 26.7306C28.1065 27.8844 26.0765 28.5002 23.9998 28.5002C21.2159 28.4972 18.5469 27.39 16.5784 25.4216C14.61 23.4531 13.5028 20.7841 13.4998 18.0002Z" fill="#100F0F"/>
</svg>
