<svg width="24" height="24" viewBox="0 0 24 24" fill="none" xmlns="http://www.w3.org/2000/svg">
<g clip-path="url(#clip0_299804_4612)">
<path d="M23.2037 16.3491L20.4372 5.4375C20.3644 5.15344 20.2103 4.89677 19.9938 4.69895C19.7774 4.50113 19.5079 4.37074 19.2184 4.32375L15.8378 3.76875C15.4651 3.70881 15.0835 3.78962 14.7671 3.99547C14.4507 4.20132 14.2221 4.5175 14.1259 4.8825L14.1062 4.96219C14.0935 5.01282 14.0915 5.06555 14.1003 5.11701C14.1091 5.16847 14.1285 5.21752 14.1574 5.26103C14.1862 5.30453 14.2239 5.34154 14.2679 5.36966C14.3118 5.39779 14.3612 5.41643 14.4128 5.42438C15.1885 5.53822 15.9538 5.71442 16.7012 5.95125C16.8881 6.00763 17.0465 6.13297 17.1444 6.30184C17.2422 6.47071 17.2721 6.67048 17.2281 6.86062C17.2028 6.95971 17.1575 7.05257 17.095 7.13351C17.0325 7.21445 16.9541 7.28174 16.8646 7.33127C16.7752 7.38079 16.6765 7.41149 16.5747 7.42148C16.4729 7.43148 16.3702 7.42055 16.2728 7.38937C13.4995 6.53886 10.5355 6.53559 7.76031 7.38C7.5725 7.44315 7.36758 7.43153 7.18811 7.34756C7.00865 7.26358 6.86842 7.11371 6.79656 6.92906C6.7624 6.83431 6.74768 6.73365 6.75327 6.63309C6.75885 6.53253 6.78464 6.43412 6.82909 6.34374C6.87354 6.25336 6.93573 6.17286 7.01197 6.10703C7.0882 6.04121 7.17691 5.99142 7.27281 5.96063C8.02956 5.71958 8.80459 5.54025 9.59031 5.42438C9.64191 5.41643 9.69128 5.39779 9.73526 5.36966C9.77924 5.34154 9.81687 5.30453 9.84572 5.26103C9.87458 5.21752 9.89404 5.16847 9.90284 5.11701C9.91165 5.06555 9.90962 5.01282 9.89687 4.96219L9.87718 4.8825C9.78095 4.51719 9.55209 4.20081 9.23525 3.99507C8.91841 3.78933 8.5363 3.70898 8.16343 3.76969L4.78093 4.32469C4.49159 4.37161 4.22221 4.50186 4.00575 4.6995C3.78929 4.89715 3.63514 5.15361 3.56218 5.4375L0.795618 16.3491C0.708874 16.692 0.746626 17.0547 0.902159 17.3724C1.05769 17.6902 1.32092 17.9425 1.64499 18.0844L7.92624 20.8697C8.11511 20.9537 8.31916 20.9981 8.52584 21.0003C8.73252 21.0025 8.93747 20.9625 9.12809 20.8826C9.31872 20.8027 9.49099 20.6846 9.63432 20.5357C9.77765 20.3868 9.88901 20.2101 9.96156 20.0166L10.2887 19.1306C10.3082 19.0776 10.3155 19.0208 10.3099 18.9645C10.3044 18.9082 10.2862 18.854 10.2567 18.8057C10.2272 18.7575 10.1872 18.7165 10.1397 18.686C10.0921 18.6554 10.0383 18.6359 9.98218 18.6291C9.07144 18.5188 8.17289 18.3242 7.29812 18.0478C7.11204 17.9913 6.95431 17.8663 6.85671 17.698C6.75912 17.5298 6.72891 17.3309 6.77218 17.1412C6.79726 17.0419 6.84243 16.9487 6.90492 16.8675C6.9674 16.7863 7.04587 16.7187 7.13547 16.669C7.22508 16.6193 7.32392 16.5884 7.42591 16.5784C7.52789 16.5684 7.63085 16.5793 7.72843 16.6106C10.5121 17.4631 13.4872 17.4631 16.2709 16.6106C16.3684 16.5795 16.4712 16.5686 16.573 16.5786C16.6748 16.5887 16.7735 16.6195 16.863 16.6691C16.9525 16.7187 17.0309 16.7861 17.0934 16.8671C17.1558 16.9482 17.201 17.0411 17.2262 17.1403C17.27 17.3301 17.24 17.5294 17.1424 17.6979C17.0447 17.8664 16.8867 17.9914 16.7003 18.0478C15.8259 18.3243 14.9276 18.5189 14.0172 18.6291C13.9611 18.6359 13.9072 18.6554 13.8597 18.686C13.8121 18.7165 13.7721 18.7575 13.7426 18.8057C13.7132 18.854 13.695 18.9082 13.6894 18.9645C13.6839 19.0208 13.6911 19.0776 13.7106 19.1306L14.0378 20.0166C14.1105 20.21 14.2219 20.3866 14.3652 20.5354C14.5086 20.6843 14.6808 20.8023 14.8714 20.8822C15.062 20.962 15.2669 21.0021 15.4736 21C15.6802 20.9979 15.8842 20.9535 16.0731 20.8697L22.3544 18.0844C22.6784 17.9425 22.9417 17.6902 23.0972 17.3724C23.2527 17.0547 23.2905 16.692 23.2037 16.3491ZM8.62468 14.25C8.40218 14.25 8.18467 14.184 7.99966 14.0604C7.81466 13.9368 7.67047 13.7611 7.58532 13.5555C7.50017 13.35 7.47789 13.1238 7.5213 12.9055C7.56471 12.6873 7.67185 12.4868 7.82919 12.3295C7.98652 12.1722 8.18698 12.065 8.4052 12.0216C8.62343 11.9782 8.84963 12.0005 9.0552 12.0856C9.26077 12.1708 9.43647 12.315 9.56008 12.5C9.6837 12.685 9.74968 12.9025 9.74968 13.125C9.74968 13.4234 9.63115 13.7095 9.42018 13.9205C9.2092 14.1315 8.92305 14.25 8.62468 14.25ZM15.3747 14.25C15.1522 14.25 14.9347 14.184 14.7497 14.0604C14.5647 13.9368 14.4205 13.7611 14.3353 13.5555C14.2502 13.35 14.2279 13.1238 14.2713 12.9055C14.3147 12.6873 14.4219 12.4868 14.5792 12.3295C14.7365 12.1722 14.937 12.065 15.1552 12.0216C15.3734 11.9782 15.5996 12.0005 15.8052 12.0856C16.0108 12.1708 16.1865 12.315 16.3101 12.5C16.4337 12.685 16.4997 12.9025 16.4997 13.125C16.4997 13.4234 16.3812 13.7095 16.1702 13.9205C15.9592 14.1315 15.673 14.25 15.3747 14.25Z" fill="white"/>
</g>
<defs>
<clipPath id="clip0_299804_4612">
<rect width="24" height="24" fill="white"/>
</clipPath>
</defs>
</svg>
