<svg width="24" height="24" viewBox="0 0 24 24" fill="none" xmlns="http://www.w3.org/2000/svg">
<g clip-path="url(#clip0_299804_4617)">
<path d="M11.8514 2.25C6.63049 2.32969 2.36299 6.57094 2.24955 11.7947C2.20983 13.5517 2.64791 15.2866 3.51705 16.8141C3.55119 16.8738 3.6011 16.9229 3.6613 16.9562C3.72151 16.9894 3.78971 17.0055 3.85842 17.0026C3.92714 16.9997 3.99374 16.9779 4.05093 16.9397C4.10812 16.9015 4.15369 16.8483 4.18268 16.7859C4.88679 15.2905 5.25082 13.6576 5.24861 12.0047C5.24696 10.9923 5.47379 9.9925 5.91223 9.07992C6.35066 8.16735 6.98938 7.36548 7.7808 6.73406C7.85842 6.67337 7.94724 6.62856 8.04219 6.60219C8.13713 6.57582 8.23633 6.56841 8.33414 6.58038C8.43195 6.59235 8.52644 6.62346 8.61222 6.67195C8.698 6.72044 8.77339 6.78535 8.83408 6.86297C8.89478 6.94059 8.93959 7.02941 8.96596 7.12435C8.99233 7.2193 8.99974 7.3185 8.98777 7.41631C8.9758 7.51411 8.94468 7.6086 8.8962 7.69439C8.84771 7.78017 8.7828 7.85556 8.70518 7.91625C8.09336 8.40777 7.59993 9.0306 7.26141 9.73863C6.92289 10.4467 6.74795 11.2218 6.74955 12.0066C6.75202 14.2582 6.15502 16.4699 5.01986 18.4144C4.97779 18.4858 4.96057 18.5692 4.97092 18.6515C4.98127 18.7337 5.01859 18.8103 5.07705 18.8691C5.26455 19.0566 5.46049 19.2441 5.66299 19.4147C5.70449 19.4496 5.75305 19.475 5.80534 19.4893C5.85762 19.5036 5.91238 19.5064 5.96585 19.4975C6.01931 19.4885 6.07021 19.4682 6.11503 19.4377C6.15985 19.4072 6.19754 19.3674 6.22549 19.3209C7.05544 17.9431 7.64479 16.4341 7.9683 14.8584C8.00796 14.6635 8.12343 14.4923 8.28931 14.3825C8.45519 14.2727 8.6579 14.2333 8.85283 14.273C9.04777 14.3126 9.21896 14.4281 9.32876 14.594C9.43856 14.7599 9.47796 14.9626 9.4383 15.1575C9.07565 16.9354 8.4073 18.6369 7.46299 20.1863C7.43636 20.2303 7.41908 20.2794 7.41223 20.3304C7.40538 20.3814 7.40911 20.4333 7.42318 20.4828C7.43725 20.5323 7.46136 20.5784 7.49402 20.6182C7.52667 20.658 7.56717 20.6906 7.61299 20.7141C7.84455 20.8313 8.08174 20.94 8.32268 21.0394C8.40587 21.075 8.49915 21.0794 8.5853 21.0516C8.67145 21.0239 8.74466 20.9659 8.79143 20.8884C10.4021 18.2131 11.252 15.149 11.2496 12.0263C11.2476 11.8337 11.3184 11.6476 11.4476 11.5049C11.5769 11.3622 11.7553 11.2735 11.9471 11.2566C12.0499 11.2493 12.1531 11.2634 12.2502 11.2979C12.3474 11.3323 12.4364 11.3864 12.5117 11.4568C12.587 11.5271 12.6469 11.6123 12.6879 11.7069C12.7288 11.8015 12.7498 11.9035 12.7496 12.0066C12.7533 15.1949 11.9396 18.331 10.3861 21.1153C10.3562 21.1686 10.3398 21.2285 10.3383 21.2896C10.3368 21.3507 10.3503 21.4113 10.3776 21.466C10.4048 21.5207 10.4451 21.5679 10.4948 21.6035C10.5444 21.6392 10.6021 21.6621 10.6627 21.6703C10.9471 21.7097 11.2349 21.7366 11.5261 21.7509C11.5961 21.7535 11.6655 21.7365 11.7263 21.7017C11.7871 21.6669 11.8369 21.6157 11.8702 21.5541C13.4293 18.6376 14.2465 15.3821 14.2496 12.075C14.2542 10.8328 13.2839 9.77906 12.0427 9.75563C11.7441 9.7499 11.4473 9.80368 11.1697 9.91384C10.8921 10.024 10.6392 10.1883 10.4257 10.3972C10.2123 10.6061 10.0426 10.8554 9.92648 11.1306C9.81039 11.4058 9.75024 11.7013 9.74955 12C9.74818 12.1873 9.67764 12.3675 9.55148 12.5059C9.42533 12.6443 9.25247 12.7313 9.06611 12.75C8.96217 12.7593 8.85744 12.7467 8.75862 12.7132C8.6598 12.6797 8.56906 12.6259 8.49221 12.5553C8.41535 12.4847 8.35407 12.3989 8.31229 12.3033C8.27051 12.2076 8.24914 12.1044 8.24955 12C8.24952 11.5042 8.34781 11.0133 8.53872 10.5558C8.72963 10.0982 9.00938 9.68307 9.36179 9.33433C9.71419 8.98559 10.1322 8.7102 10.5918 8.52407C11.0513 8.33795 11.5432 8.2448 12.0389 8.25C14.1014 8.27156 15.7589 10.0472 15.7486 12.1088C15.7395 15.1666 15.0839 18.188 13.8249 20.9747C13.7963 21.0389 13.7863 21.1098 13.796 21.1794C13.8058 21.249 13.8349 21.3145 13.88 21.3683C13.9252 21.4222 13.9845 21.4622 14.0514 21.484C14.1182 21.5057 14.1898 21.5082 14.258 21.4913C14.5832 21.4141 14.9043 21.3203 15.2199 21.21C15.269 21.1926 15.314 21.165 15.352 21.1292C15.3899 21.0933 15.42 21.05 15.4402 21.0019C15.8768 19.9673 16.2365 18.9019 16.5164 17.8144C16.541 17.719 16.5842 17.6293 16.6435 17.5506C16.7027 17.4719 16.7769 17.4056 16.8618 17.3555C16.9467 17.3055 17.0406 17.2726 17.1382 17.2589C17.2357 17.2451 17.3351 17.2507 17.4305 17.2753C17.5259 17.2999 17.6155 17.3431 17.6943 17.4024C17.773 17.4616 17.8393 17.5358 17.8893 17.6207C17.9394 17.7056 17.9722 17.7995 17.986 17.8971C17.9998 17.9946 17.9942 18.094 17.9696 18.1894C17.8996 18.4625 17.8246 18.7344 17.7446 19.005C17.721 19.0829 17.7235 19.1664 17.7515 19.2428C17.7796 19.3192 17.8318 19.3844 17.9001 19.4285C17.9685 19.4727 18.0494 19.4934 18.1306 19.4875C18.2118 19.4816 18.2889 19.4495 18.3502 19.3959C19.8705 18.0904 20.9516 16.3481 21.4464 14.4062C21.9412 12.4643 21.8256 10.4171 21.1154 8.54329C20.4052 6.66942 19.1348 5.05992 17.4771 3.93385C15.8195 2.80777 13.8551 2.21981 11.8514 2.25ZM18.5621 15.1013C18.5393 15.2822 18.4513 15.4487 18.3146 15.5695C18.178 15.6903 18.0019 15.7571 17.8196 15.7575C17.7882 15.7575 17.7569 15.7556 17.7258 15.7519C17.628 15.7397 17.5336 15.7084 17.448 15.6597C17.3623 15.6111 17.2871 15.546 17.2266 15.4683C17.1661 15.3905 17.1215 15.3016 17.0953 15.2066C17.0692 15.1116 17.062 15.0124 17.0742 14.9147C17.1938 13.9505 17.2539 12.98 17.2542 12.0084C17.2523 10.6167 16.6985 9.28246 15.7144 8.29832C14.7302 7.31418 13.396 6.76042 12.0042 6.75844C11.7849 6.75834 11.5657 6.7718 11.348 6.79875C11.1504 6.82361 10.9511 6.76899 10.7938 6.64688C10.6366 6.52478 10.5343 6.3452 10.5094 6.14766C10.4845 5.95011 10.5392 5.75078 10.6613 5.59351C10.7834 5.43625 10.9629 5.33393 11.1605 5.30906C12.1108 5.19085 13.0754 5.27592 13.9903 5.55862C14.9053 5.84133 15.7497 6.31522 16.4677 6.94891C17.1857 7.5826 17.7608 8.36161 18.155 9.23435C18.5492 10.1071 18.7535 11.0536 18.7542 12.0113C18.754 13.0442 18.6898 14.0762 18.5621 15.1013Z" fill="black"/>
</g>
<defs>
<clipPath id="clip0_299804_4617">
<rect width="24" height="24" fill="white"/>
</clipPath>
</defs>
</svg>
