<svg width="211" height="66" viewBox="0 0 211 66" fill="none" xmlns="http://www.w3.org/2000/svg">
<g opacity="0.3" filter="url(#filter0_f_299804_4621)">
<path d="M27 13.7321C28.8564 12.6603 31.1436 12.6603 33 13.7321L40.8564 18.2679C42.7128 19.3397 43.8564 21.3205 43.8564 23.4641V32.5359C43.8564 34.6795 42.7128 36.6603 40.8564 37.7321L33 42.2679C31.1436 43.3397 28.8564 43.3397 27 42.2679L19.1436 37.7321C17.2871 36.6603 16.1436 34.6795 16.1436 32.5359V23.4641C16.1436 21.3205 17.2871 19.3397 19.1436 18.2679L27 13.7321Z" fill="#F7FC0E"/>
</g>
<g opacity="0.4" filter="url(#filter1_f_299804_4621)">
<path d="M26.9998 18.7321C28.8562 17.6603 31.1434 17.6603 32.9998 18.7321L41.7222 23.7679C43.5786 24.8397 44.7222 26.8205 44.7222 28.9641V39.0359C44.7222 41.1795 43.5786 43.1603 41.7222 44.2321L32.9998 49.2679C31.1434 50.3397 28.8562 50.3397 26.9998 49.2679L18.2773 44.2321C16.4209 43.1603 15.2773 41.1795 15.2773 39.0359V28.9641C15.2773 26.8205 16.4209 24.8397 18.2773 23.7679L26.9998 18.7321Z" fill="#F7FC0E"/>
</g>
<path d="M27.0002 5.73205C28.8566 4.66025 31.1438 4.66025 33.0002 5.73205L44.3207 12.2679C46.1771 13.3397 47.3207 15.3205 47.3207 17.4641V30.5359C47.3207 32.6795 46.1771 34.6603 44.3207 35.7321L33.0002 42.2679C31.1438 43.3397 28.8566 43.3397 27.0002 42.2679L15.6797 35.7321C13.8233 34.6603 12.6797 32.6795 12.6797 30.5359V17.4641C12.6797 15.3205 13.8233 13.3397 15.6797 12.2679L27.0002 5.73205Z" fill="#F7FC0E"/>
<path d="M24.3752 24.1734L30.1298 14.625V14.6295L30.1312 14.625L35.8849 24.1721L35.888 24.1735L30.1333 27.5751V27.5741L30.1312 27.5753L30.1298 27.574V27.5751L24.3752 24.1734Z" fill="black"/>
<path d="M30.1298 33.371V33.375L24.375 25.2655L30.1298 28.6654V28.6671L30.1312 28.6654L35.8894 25.2655L30.1312 33.375L30.1298 33.371Z" fill="black"/>
<path d="M67.184 23.832C67.184 21.656 67.6853 19.704 68.688 17.976C69.712 16.248 71.088 14.904 72.816 13.944C74.5653 12.9627 76.4747 12.472 78.544 12.472C80.912 12.472 83.0133 13.0587 84.848 14.232C86.704 15.384 88.048 17.0267 88.88 19.16H84.496C83.92 17.9867 83.12 17.112 82.096 16.536C81.072 15.96 79.888 15.672 78.544 15.672C77.072 15.672 75.76 16.0027 74.608 16.664C73.456 17.3253 72.5493 18.2747 71.888 19.512C71.248 20.7493 70.928 22.1893 70.928 23.832C70.928 25.4747 71.248 26.9147 71.888 28.152C72.5493 29.3893 73.456 30.3493 74.608 31.032C75.76 31.6933 77.072 32.024 78.544 32.024C79.888 32.024 81.072 31.736 82.096 31.16C83.12 30.584 83.92 29.7093 84.496 28.536H88.88C88.048 30.6693 86.704 32.312 84.848 33.464C83.0133 34.616 80.912 35.192 78.544 35.192C76.4533 35.192 74.544 34.712 72.816 33.752C71.088 32.7707 69.712 31.416 68.688 29.688C67.6853 27.96 67.184 26.008 67.184 23.832ZM100.798 35.288C99.134 35.288 97.63 34.9147 96.286 34.168C94.942 33.4 93.886 32.3333 93.118 30.968C92.35 29.5813 91.966 27.9813 91.966 26.168C91.966 24.376 92.3607 22.7867 93.15 21.4C93.9393 20.0133 95.0167 18.9467 96.382 18.2C97.7473 17.4533 99.2727 17.08 100.958 17.08C102.643 17.08 104.169 17.4533 105.534 18.2C106.899 18.9467 107.977 20.0133 108.766 21.4C109.555 22.7867 109.95 24.376 109.95 26.168C109.95 27.96 109.545 29.5493 108.734 30.936C107.923 32.3227 106.814 33.4 105.406 34.168C104.019 34.9147 102.483 35.288 100.798 35.288ZM100.798 32.12C101.737 32.12 102.611 31.896 103.422 31.448C104.254 31 104.926 30.328 105.438 29.432C105.95 28.536 106.206 27.448 106.206 26.168C106.206 24.888 105.961 23.8107 105.47 22.936C104.979 22.04 104.329 21.368 103.518 20.92C102.707 20.472 101.833 20.248 100.894 20.248C99.9553 20.248 99.0807 20.472 98.27 20.92C97.4807 21.368 96.8513 22.04 96.382 22.936C95.9127 23.8107 95.678 24.888 95.678 26.168C95.678 28.0667 96.158 29.5387 97.118 30.584C98.0993 31.608 99.326 32.12 100.798 32.12ZM112.34 26.104C112.34 24.3333 112.703 22.7653 113.428 21.4C114.175 20.0347 115.178 18.9787 116.436 18.232C117.716 17.464 119.135 17.08 120.692 17.08C121.844 17.08 122.975 17.336 124.084 17.848C125.215 18.3387 126.111 19 126.772 19.832V11.32H130.452V35H126.772V32.344C126.175 33.1973 125.343 33.9013 124.276 34.456C123.231 35.0107 122.026 35.288 120.66 35.288C119.124 35.288 117.716 34.904 116.436 34.136C115.178 33.3467 114.175 32.2587 113.428 30.872C112.703 29.464 112.34 27.8747 112.34 26.104ZM126.772 26.168C126.772 24.952 126.516 23.896 126.004 23C125.514 22.104 124.863 21.4213 124.052 20.952C123.242 20.4827 122.367 20.248 121.428 20.248C120.49 20.248 119.615 20.4827 118.804 20.952C117.994 21.4 117.332 22.072 116.82 22.968C116.33 23.8427 116.084 24.888 116.084 26.104C116.084 27.32 116.33 28.3867 116.82 29.304C117.332 30.2213 117.994 30.9253 118.804 31.416C119.636 31.8853 120.511 32.12 121.428 32.12C122.367 32.12 123.242 31.8853 124.052 31.416C124.863 30.9467 125.514 30.264 126.004 29.368C126.516 28.4507 126.772 27.384 126.772 26.168ZM151.404 25.752C151.404 26.4133 151.361 27.0107 151.276 27.544H137.804C137.91 28.952 138.433 30.0827 139.372 30.936C140.31 31.7893 141.462 32.216 142.828 32.216C144.79 32.216 146.177 31.3947 146.988 29.752H150.924C150.39 31.3733 149.42 32.7067 148.012 33.752C146.625 34.776 144.897 35.288 142.828 35.288C141.142 35.288 139.628 34.9147 138.284 34.168C136.961 33.4 135.916 32.3333 135.148 30.968C134.401 29.5813 134.028 27.9813 134.028 26.168C134.028 24.3547 134.39 22.7653 135.116 21.4C135.862 20.0133 136.897 18.9467 138.22 18.2C139.564 17.4533 141.1 17.08 142.828 17.08C144.492 17.08 145.974 17.4427 147.276 18.168C148.577 18.8933 149.59 19.9173 150.316 21.24C151.041 22.5413 151.404 24.0453 151.404 25.752ZM147.596 24.6C147.574 23.256 147.094 22.1787 146.156 21.368C145.217 20.5573 144.054 20.152 142.668 20.152C141.409 20.152 140.332 20.5573 139.436 21.368C138.54 22.1573 138.006 23.2347 137.836 24.6H147.596ZM173.266 35H169.618L158.642 18.392V35H154.994V12.728H158.642L169.618 29.304V12.728H173.266V35ZM191.144 12.76V15.736H181.704V22.296H189.064V25.272H181.704V35H178.056V12.76H191.144ZM208.893 12.76V15.736H202.973V35H199.325V15.736H193.373V12.76H208.893Z" fill="white"/>
<defs>
<filter id="filter0_f_299804_4621" x="10.1436" y="6.9282" width="39.7129" height="42.1436" filterUnits="userSpaceOnUse" color-interpolation-filters="sRGB">
<feFlood flood-opacity="0" result="BackgroundImageFix"/>
<feBlend mode="normal" in="SourceGraphic" in2="BackgroundImageFix" result="shape"/>
<feGaussianBlur stdDeviation="3" result="effect1_foregroundBlur_299804_4621"/>
</filter>
<filter id="filter1_f_299804_4621" x="0.277344" y="2.9282" width="59.4453" height="62.1436" filterUnits="userSpaceOnUse" color-interpolation-filters="sRGB">
<feFlood flood-opacity="0" result="BackgroundImageFix"/>
<feBlend mode="normal" in="SourceGraphic" in2="BackgroundImageFix" result="shape"/>
<feGaussianBlur stdDeviation="7.5" result="effect1_foregroundBlur_299804_4621"/>
</filter>
</defs>
</svg>
