<svg width="48" height="48" viewBox="0 0 48 48" fill="none" xmlns="http://www.w3.org/2000/svg">
<g clip-path="url(#clip0_299680_4722)">
<path d="M0.987 30.999C2.49237 35.9203 5.53795 40.2283 9.6754 43.2889C13.8129 46.3495 18.8236 48.0009 23.97 48C37.242 48 48 37.254 48 24C48 10.746 37.242 1.79935e-06 23.973 1.79935e-06C17.8808 -0.00235495 12.0154 2.31048 7.56437 6.47018C3.11335 10.6299 0.409392 16.3256 0 22.404L0.009 22.422L12.921 27.729C14.0855 26.958 15.4648 26.5767 16.86 26.64L22.74 18.108L22.737 17.988C22.7394 15.5681 23.7015 13.2479 25.4124 11.5365C27.1232 9.8251 29.4431 8.86218 31.863 8.859C34.2829 8.86218 36.6028 9.8251 38.3136 11.5365C40.0245 13.2479 40.9866 15.5681 40.989 17.988C40.9881 19.204 40.7445 20.4076 40.2727 21.5283C39.8008 22.6489 39.1101 23.6642 38.2409 24.5147C37.3718 25.3651 36.3417 26.0335 35.211 26.4809C34.0803 26.9283 32.8717 27.1455 31.656 27.12L23.244 33.12C23.2725 34.2314 23.0228 35.3323 22.5174 36.3226C22.0121 37.3129 21.2672 38.1611 20.3504 38.7901C19.4337 39.4191 18.3743 39.809 17.2685 39.9242C16.1628 40.0395 15.0457 39.8765 14.019 39.45C13.0336 39.0394 12.1615 38.3976 11.4764 37.5788C10.7913 36.76 10.3134 35.7884 10.083 34.746L0.99 30.999H0.987Z" fill="white"/>
<path d="M14.604 38.049C15.8539 38.5261 17.2405 38.4975 18.4697 37.9694C19.6989 37.4413 20.6741 36.4552 21.1884 35.2201C21.7027 33.9851 21.7157 32.5983 21.2247 31.3538C20.7336 30.1093 19.7771 29.105 18.558 28.554C17.3493 28.0496 15.9931 28.0281 14.769 28.494L17.838 29.766C18.297 29.9571 18.7138 30.2367 19.0647 30.5888C19.4156 30.941 19.6938 31.3588 19.8832 31.8185C20.0726 32.2781 20.1697 32.7706 20.1688 33.2677C20.1679 33.7649 20.0691 34.257 19.878 34.716C19.6869 35.175 19.4073 35.5918 19.0552 35.9427C18.703 36.2936 18.2852 36.5717 17.8255 36.7612C17.3659 36.9506 16.8734 37.0476 16.3762 37.0467C15.8791 37.0459 15.387 36.9471 14.928 36.756L11.958 35.526C12.4985 36.664 13.441 37.5616 14.604 38.046V38.049ZM25.782 17.988C25.7828 19.6011 26.4235 21.148 27.5636 22.2891C28.7037 23.4303 30.2499 24.0726 31.863 24.075C33.4761 24.0726 35.0223 23.4303 36.1624 22.2891C37.3025 21.148 37.9432 19.6011 37.944 17.988C37.9416 16.3759 37.3002 14.8306 36.1603 13.6907C35.0204 12.5508 33.4751 11.9094 31.863 11.907C30.251 11.9094 28.7056 12.5508 27.5657 13.6907C26.4258 14.8306 25.7844 16.3759 25.782 17.988V17.988ZM31.872 13.407C32.4724 13.4074 33.0669 13.526 33.6214 13.7562C34.176 13.9863 34.6798 14.3234 35.104 14.7482C35.5283 15.173 35.8647 15.6773 36.0941 16.2321C36.3235 16.787 36.4414 17.3816 36.441 17.982C36.4406 18.5824 36.322 19.1768 36.0918 19.7314C35.8617 20.2859 35.5246 20.7897 35.0998 21.214C34.675 21.6383 34.1707 21.9747 33.6159 22.2041C33.061 22.4335 32.4664 22.5514 31.866 22.551C30.6534 22.5502 29.4908 22.0677 28.634 21.2098C27.7771 20.3518 27.2962 19.1886 27.297 17.976C27.2978 16.7634 27.7803 15.6008 28.6382 14.744C29.4962 13.8871 30.6594 13.4062 31.872 13.407V13.407Z" fill="white"/>
</g>
<defs>
<clipPath id="clip0_299680_4722">
<rect width="48" height="48" fill="white"/>
</clipPath>
</defs>
</svg>
