<svg width="48" height="48" viewBox="0 0 48 48" fill="none" xmlns="http://www.w3.org/2000/svg">
<path d="M39.9999 23.1111C40.0061 25.4576 39.4579 27.7723 38.4 29.8667C37.1456 32.3764 35.2173 34.4874 32.831 35.9632C30.4447 37.4389 27.6946 38.2211 24.8889 38.2222C22.5424 38.2283 20.2277 37.6801 18.1333 36.6222L8 40L11.3778 29.8667C10.3199 27.7723 9.77166 25.4576 9.77777 23.1111C9.77886 20.3054 10.5611 17.5553 12.0368 15.169C13.5126 12.7827 15.6236 10.8544 18.1333 9.60005C20.2277 8.54215 22.5424 7.99393 24.8889 8.00005H25.7777C29.4833 8.20448 32.9831 9.76851 35.6073 12.3927C38.2315 15.0169 39.7955 18.5167 39.9999 22.2223V23.1111Z" stroke="white" stroke-width="2" stroke-linecap="round" stroke-linejoin="round"/>
</svg>
