<svg width="40" height="40" viewBox="0 0 40 40" fill="none" xmlns="http://www.w3.org/2000/svg">
<rect x="0.5" y="0.5" width="39" height="39" rx="19.5" stroke="#232323"/>
<g clip-path="url(#clip0_299672_115)">
<path d="M20 23.75C22.0711 23.75 23.75 22.0711 23.75 20C23.75 17.9289 22.0711 16.25 20 16.25C17.9289 16.25 16.25 17.9289 16.25 20C16.25 22.0711 17.9289 23.75 20 23.75Z" stroke="#232323" stroke-width="2" stroke-miterlimit="10"/>
<path d="M24.5 11H15.5C13.0147 11 11 13.0147 11 15.5V24.5C11 26.9853 13.0147 29 15.5 29H24.5C26.9853 29 29 26.9853 29 24.5V15.5C29 13.0147 26.9853 11 24.5 11Z" stroke="#232323" stroke-width="2" stroke-linecap="round" stroke-linejoin="round"/>
<path d="M24.875 16.25C25.4963 16.25 26 15.7463 26 15.125C26 14.5037 25.4963 14 24.875 14C24.2537 14 23.75 14.5037 23.75 15.125C23.75 15.7463 24.2537 16.25 24.875 16.25Z" fill="#232323"/>
</g>
<defs>
<clipPath id="clip0_299672_115">
<rect width="24" height="24" fill="white" transform="translate(8 8)"/>
</clipPath>
</defs>
</svg>
