<svg width="154" height="41" viewBox="0 0 154 41" fill="none" xmlns="http://www.w3.org/2000/svg">
<path d="M10.7974 9.00114C10.296 10.2046 9.66086 11.4749 9.05914 12.4443H5.31514C5.95029 11.3077 6.51857 10.1711 6.98657 9.00114H10.7974ZM13.3714 17.8263H10.3629V14.4834H13.3714V17.8263ZM13.3714 23.2083H10.3629V19.7651H13.3714V23.2083ZM5.54914 17.8263V14.4834H8.45743V17.8263H5.54914ZM8.45743 19.7651V23.2083H5.54914V19.7651H8.45743ZM3.47657 15.2857V25.2809H15.5109V12.4443H11.3991C12.2683 11.0403 13.1374 9.40228 13.806 7.86457L12.3351 6.89514L11.9006 7.02885H7.75543C8.05629 6.12628 8.35714 5.22371 8.59114 4.35457L6.28457 4.02028C5.51571 7.16257 3.87771 11.2743 1.30371 14.3831C1.83857 14.6506 2.64086 15.3191 3.042 15.8206L3.47657 15.2857ZM2.94171 34.574C4.64657 32.936 5.28171 30.0277 5.616 27.2197L3.81086 26.7851C3.54343 29.426 2.84143 32.0669 1.30371 33.6046L2.94171 34.574ZM6.81943 27.0526C7.15372 29.0249 7.32086 31.5654 7.22057 33.2034L9.02572 33.0029C9.09257 31.3314 8.92543 28.8243 8.52429 26.8186L6.81943 27.0526ZM9.89486 27.0191C10.5969 28.8911 11.1986 31.298 11.3657 32.9026L13.104 32.468C12.9034 30.8969 12.3017 28.49 11.4994 26.6514L9.89486 27.0191ZM13.0037 26.7183C13.9731 28.3897 14.9091 30.6629 15.3103 32.1671L16.9817 31.4651C16.5806 29.9943 15.6111 27.788 14.6083 26.1166L13.0037 26.7183ZM28.6483 22.172V25.5149H20.2577V22.172H28.6483ZM20.2577 30.9971V27.5206H28.6483V30.9971H20.2577ZM17.9846 34.6074H20.2577V33.1366H28.6483V34.4403H30.9883V20.0326H17.9846V34.6074ZM21.7286 15.2523C19.89 15.2523 19.5891 15.0517 19.5891 14.0154V11.1406C23.4334 10.238 27.7123 9.00114 30.6206 7.59714L28.8823 5.85885C26.7094 7.02885 23.0657 8.23228 19.5891 9.13486V4.05371H17.2826V14.0154C17.2826 16.7231 18.1517 17.4251 21.5614 17.4251H28.3474C31.1554 17.4251 31.9243 16.4223 32.2251 12.6783C31.5566 12.5111 30.5871 12.1434 30.0523 11.7423C29.9186 14.7509 29.6511 15.2523 28.2137 15.2523H21.7286Z" fill="#232323"/>
<path d="M39.8303 11.3474C41.3859 10.0495 42.3116 9.40054 42.6074 9.40054H55.1045C54.9709 9.41963 54.7657 9.54846 54.489 9.78705C54.2217 10.0256 53.9927 10.2308 53.8018 10.4026C53.611 10.5648 53.4249 10.7128 53.2435 10.8464C52.8141 11.1804 52.5039 11.3474 52.3131 11.3474H45.2987V19.1348H52.2415C52.1174 19.1539 51.917 19.2875 51.6403 19.5356C51.3635 19.7742 51.1297 19.9746 50.9388 20.1369C50.7479 20.2991 50.5618 20.4518 50.3805 20.595C49.9606 20.929 49.6504 21.096 49.45 21.096H45.2987V24.4457C45.2987 26.1635 44.9551 27.366 44.268 28.0531H48.8631C48.7295 28.0722 48.5243 28.2011 48.2476 28.4397C47.9804 28.6782 47.7513 28.8834 47.5604 29.0552C47.3696 29.2174 47.1835 29.3701 47.0022 29.5133C46.5727 29.8378 46.2625 30 46.0717 30H41.2188C42.0778 28.6639 42.5072 27.5235 42.5072 26.5787V21.096H40.5031C41.1711 20.5616 41.8392 20.0367 42.5072 19.5213V11.3474H39.8303ZM78.066 18.0612C78.066 19.0442 77.899 20.0748 77.5649 21.1533C77.2309 22.2221 76.7681 23.248 76.1764 24.231C75.5942 25.2044 74.8976 26.1158 74.0864 26.9652C73.2752 27.8146 72.3924 28.5494 71.4381 29.1697C69.3958 30.4963 67.3105 31.1595 65.1824 31.1595C62.1762 31.1595 59.7951 30.2863 58.0391 28.5399C56.2736 26.7934 55.3908 24.4219 55.3908 21.4252C55.3908 19.1635 56.0159 17.04 57.2661 15.055C58.4495 13.1559 60.0337 11.6385 62.0187 10.5028C64.0324 9.34805 66.1749 8.77068 68.4462 8.77068C71.0611 8.77068 73.3086 9.63435 75.1886 11.3617C77.1069 13.1272 78.066 15.3604 78.066 18.0612ZM75.2745 20.3516C75.2745 19.0251 75.0407 17.7606 74.5731 16.5581C74.115 15.3461 73.4613 14.3106 72.6119 13.4517C70.8368 11.6671 68.4748 10.7748 65.5259 10.7748C61.6799 10.7748 59.3561 12.3924 58.5545 15.6276C58.3063 16.6488 58.1823 17.8608 58.1823 19.2637C58.1823 20.6665 58.397 21.9978 58.8264 23.2576C59.2654 24.5078 59.9048 25.5814 60.7447 26.4785C62.5007 28.3394 64.9247 29.2699 68.0168 29.2699C70.4885 29.2699 72.3542 28.411 73.614 26.6932C74.721 25.1853 75.2745 23.0715 75.2745 20.3516ZM103.203 18.0612C103.203 19.0442 103.036 20.0748 102.702 21.1533C102.368 22.2221 101.905 23.248 101.314 24.231C100.732 25.2044 100.035 26.1158 99.2237 26.9652C98.4125 27.8146 97.5298 28.5494 96.5754 29.1697C94.5331 30.4963 92.4479 31.1595 90.3197 31.1595C87.3135 31.1595 84.9325 30.2863 83.1765 28.5399C81.4109 26.7934 80.5282 24.4219 80.5282 21.4252C80.5282 19.1635 81.1533 17.04 82.4034 15.055C83.5868 13.1559 85.171 11.6385 87.1561 10.5028C89.1697 9.34805 91.3122 8.77068 93.5836 8.77068C96.1985 8.77068 98.4459 9.63435 100.326 11.3617C102.244 13.1272 103.203 15.3604 103.203 18.0612ZM100.412 20.3516C100.412 19.0251 100.178 17.7606 99.7104 16.5581C99.2523 15.3461 98.5986 14.3106 97.7493 13.4517C95.9742 11.6671 93.6122 10.7748 90.6633 10.7748C86.8173 10.7748 84.4935 12.3924 83.6918 15.6276C83.4437 16.6488 83.3196 17.8608 83.3196 19.2637C83.3196 20.6665 83.5343 21.9978 83.9638 23.2576C84.4028 24.5078 85.0422 25.5814 85.882 26.4785C87.638 28.3394 90.062 29.2699 93.1541 29.2699C95.6258 29.2699 97.4916 28.411 98.7513 26.6932C99.8584 25.1853 100.412 23.0715 100.412 20.3516ZM125.12 18.7769C125.12 19.9508 124.929 21.0578 124.547 22.0981C124.175 23.1383 123.66 24.0783 123.001 24.9181C122.352 25.758 121.584 26.4976 120.696 27.137C119.809 27.7668 118.859 28.2917 117.848 28.7116C115.796 29.5705 113.629 30 111.349 30H106.739C107.464 29.2461 107.827 27.8861 107.827 25.9202V11.3474H104.678C104.83 11.3092 105.155 11.0706 105.651 10.6316C106.596 9.81091 107.197 9.40054 107.455 9.40054L113.811 9.38623C116.979 9.38623 119.589 10.102 121.641 11.5335C123.96 13.1463 125.12 15.5608 125.12 18.7769ZM121.856 24.0879C122.19 23.1717 122.357 22.0933 122.357 20.8526C122.357 19.6025 122.228 18.505 121.97 17.5602C121.722 16.6154 121.36 15.7946 120.882 15.098C120.405 14.3917 119.823 13.8001 119.136 13.3229C118.449 12.8457 117.671 12.4592 116.803 12.1634C115.161 11.6194 113.095 11.3474 110.604 11.3474V25.1472C110.604 26.1206 110.461 26.8602 110.175 27.366C110.051 27.5664 109.888 27.8098 109.688 28.0961H114.455C118.435 28.0961 120.902 26.76 121.856 24.0879ZM136.414 9.40054C136.243 9.44826 135.909 9.69162 135.412 10.1306C134.916 10.5601 134.539 10.8702 134.281 11.0611C134.024 11.252 133.809 11.3474 133.637 11.3474H132.564V26.8077C132.564 28.4778 132.163 30.1479 131.361 31.818C130.54 33.5454 129.462 34.9435 128.126 36.0124C126.647 37.1862 125.063 37.7731 123.373 37.7731C122.887 37.7731 122.333 37.6538 121.713 37.4152C121.092 37.1862 120.663 37.0049 120.424 36.8713C119.89 36.5754 119.623 36.2939 119.623 36.0267C119.623 35.7499 120.396 35.0771 121.942 34.0082C122.429 33.6551 122.81 33.4118 123.087 33.2782C122.591 33.6122 122.343 33.8985 122.343 34.1371C122.343 34.2516 122.576 34.4472 123.044 34.724C123.502 35.0007 123.898 35.2107 124.232 35.3539C125.005 35.6783 125.678 35.8406 126.251 35.8406C126.814 35.8406 127.291 35.7213 127.682 35.4827C128.073 35.2441 128.398 34.9292 128.656 34.5379C128.923 34.1466 129.128 33.7028 129.271 33.2066C129.424 32.7103 129.538 32.1998 129.615 31.6749C129.729 30.8828 129.786 29.9141 129.786 28.7689V11.3474H127.11C127.224 11.2615 127.41 11.1136 127.668 10.9036C127.935 10.6841 128.212 10.4646 128.498 10.2451C129.223 9.68207 129.686 9.40054 129.887 9.40054H136.414ZM147.981 21.368C147.323 21.7306 146.631 22.0026 145.905 22.1839C145.19 22.3653 144.579 22.4559 144.073 22.4559C143.567 22.4559 143.181 22.4464 142.913 22.4273C142.913 22.9617 142.913 23.4818 142.913 23.9876C142.923 24.4935 142.885 24.9802 142.799 25.4478C142.608 26.4976 142.136 27.366 141.382 28.0531L145.891 28.0245C145.757 28.0531 145.571 28.1724 145.333 28.3824C145.094 28.5923 144.836 28.8166 144.56 29.0552C143.844 29.6851 143.362 30 143.114 30H138.576C139.234 29.3988 139.645 28.893 139.807 28.4826C140.017 27.9195 140.122 27.1465 140.122 26.1635V11.3474H136.83C138.347 10.0495 139.273 9.40054 139.607 9.40054H147.294C148.983 9.40054 150.405 9.81568 151.56 10.646C152.848 11.5717 153.492 12.8553 153.492 14.4967C153.492 15.995 152.901 17.3741 151.717 18.6338C150.916 19.5022 149.67 20.4136 147.981 21.368ZM150.715 16.3577C150.715 13.0175 148.32 11.3474 143.529 11.3474H142.913V19.8219C143.267 19.8506 143.753 19.9412 144.374 20.0939C145.471 20.3612 146.33 20.4948 146.95 20.4948C147.58 20.4948 148.138 20.4184 148.625 20.2657C149.121 20.1035 149.522 19.8554 149.828 19.5213C150.419 18.8915 150.715 17.8369 150.715 16.3577Z" fill="#FF0000"/>
</svg>
