<svg width="40" height="40" viewBox="0 0 40 40" fill="none" xmlns="http://www.w3.org/2000/svg">
<g clip-path="url(#clip0_299672_77)">
<path d="M21.1468 4.51553L24.7765 13.1655C24.8644 13.3754 25.0079 13.5574 25.1915 13.6918C25.3752 13.8261 25.592 13.9078 25.8187 13.928L35.1093 14.7312C35.3558 14.751 35.5909 14.8435 35.7849 14.9969C35.9788 15.1504 36.1228 15.3579 36.1988 15.5933C36.2747 15.8286 36.2791 16.0812 36.2115 16.3191C36.1438 16.557 36.0071 16.7694 35.8187 16.9296L28.7703 23.078C28.5989 23.2285 28.4716 23.4226 28.4017 23.6397C28.3318 23.8567 28.322 24.0887 28.3734 24.3108L30.4859 33.4577C30.5417 33.6966 30.526 33.9467 30.4407 34.1767C30.3554 34.4067 30.2043 34.6066 30.0063 34.7513C29.8082 34.8961 29.5719 34.9794 29.3268 34.9908C29.0818 35.0022 28.8387 34.9413 28.6281 34.8155L20.6437 29.9718C20.4497 29.8538 20.227 29.7914 20 29.7914C19.7729 29.7914 19.5502 29.8538 19.3562 29.9718L11.3718 34.8155C11.1612 34.9413 10.9181 35.0022 10.6731 34.9908C10.428 34.9794 10.1917 34.8961 9.99363 34.7513C9.79556 34.6066 9.64447 34.4067 9.55918 34.1767C9.47389 33.9467 9.45819 33.6966 9.51401 33.4577L11.6265 24.3108C11.6779 24.0887 11.6681 23.8567 11.5982 23.6397C11.5283 23.4226 11.401 23.2285 11.2296 23.078L4.1812 16.9296C3.99276 16.7694 3.85607 16.557 3.78841 16.3191C3.72075 16.0812 3.72518 15.8286 3.80112 15.5933C3.87706 15.3579 4.02111 15.1504 4.21504 14.9969C4.40897 14.8435 4.64406 14.751 4.89057 14.7312L14.1812 13.928C14.4079 13.9078 14.6247 13.8261 14.8084 13.6918C14.992 13.5574 15.1355 13.3754 15.2234 13.1655L18.8531 4.51553C18.95 4.29189 19.1102 4.10147 19.314 3.96772C19.5178 3.83396 19.7562 3.7627 20 3.7627C20.2437 3.7627 20.4821 3.83396 20.6859 3.96772C20.8897 4.10147 21.0499 4.29189 21.1468 4.51553Z" fill="#FF0000" stroke="#FF0000" stroke-width="2" stroke-linecap="round" stroke-linejoin="round"/>
</g>
<defs>
<clipPath id="clip0_299672_77">
<rect width="40" height="40" fill="white"/>
</clipPath>
</defs>
</svg>
