<svg width="40" height="40" viewBox="0 0 40 40" fill="none" xmlns="http://www.w3.org/2000/svg">
<rect x="0.5" y="0.5" width="39" height="39" rx="19.5" stroke="#232323"/>
<g clip-path="url(#clip0_299672_122)">
<path d="M16.25 24.5C16.25 24.5 11.0797 21.5 11.8231 13.25C11.8231 13.25 15.5412 17 20 17.75V16.25C20 14.1875 21.6875 12.4747 23.75 12.5C24.4779 12.5085 25.1882 12.7248 25.7972 13.1234C26.4063 13.522 26.8888 14.0864 27.1878 14.75H30.5L27.5 17.75C27.1006 24.0163 21.8675 29 15.5 29C12.5 29 11.75 27.875 11.75 27.875C11.75 27.875 14.75 26.75 16.25 24.5Z" stroke="#232323" stroke-width="2" stroke-linecap="round" stroke-linejoin="round"/>
</g>
<defs>
<clipPath id="clip0_299672_122">
<rect width="24" height="24" fill="white" transform="translate(8 8)"/>
</clipPath>
</defs>
</svg>
