<svg width="40" height="57" viewBox="0 0 40 57" fill="none" xmlns="http://www.w3.org/2000/svg">
<path fill-rule="evenodd" clip-rule="evenodd" d="M22.0584 25.2017L22.2531 24.8401C24.2281 25.9898 28.8011 28.7511 31.2935 30.5981C31.2749 32.1558 31.1099 36.2615 30.598 40.2225C30.3662 42.1975 29.4131 47.0932 27.4548 50.8762C28.5767 49.3834 31.0821 45.2295 32.128 40.5563C32.4896 39.2304 33.3129 35.249 33.7135 29.9305C31.5809 28.6973 26.3477 25.8637 22.4757 24.395L22.7538 23.8109C25.6189 24.599 32.3115 26.5981 36.1613 28.2893C36.0779 30.2921 35.5828 35.5494 34.2698 40.5563C33.5915 43.1433 31.7218 49.8025 26.4256 56.1892C26.4986 56.1138 26.5874 56.0243 26.6916 55.9194C27.818 54.7843 30.7393 51.8406 34.854 45.4242C36.9124 41.6134 38.2754 37.2184 40 26.7594C35.9388 25.452 30.4033 24.0056 22.9207 23.2267L23.1432 22.7816C25.9249 22.6333 32.4228 22.5313 36.1613 23.3102C36.5878 20.4636 36.4339 13.8581 33.0737 10.2086C33.8155 12.2392 35.1989 17.274 34.1307 21.1683C31.414 21.1497 25.4298 21.2629 23.2267 21.8637L22.8651 21.3908C24.497 20.4173 28.2225 18.3867 30.0695 18.0529C30.0756 18.0084 30.0817 17.9636 30.0878 17.9185C30.6182 14.0173 31.4509 7.89213 25.8136 0C27.1766 2.80946 29.3797 9.5911 27.9555 16.6899L22.42 20.7232L22.0028 20.1391L23.6996 18.3867C23.3936 17.886 22.4812 16.7677 21.2796 16.3004C21.8544 16.9866 22.6314 18.5035 21.1405 19.0821H18.943C18.3032 18.9152 17.3797 18.1252 18.8039 16.3004C18.2197 16.5693 16.9346 17.363 16.4673 18.3867L17.7469 19.9166L17.4687 20.4729L12.128 16.7177C11.4974 14.0009 10.9819 6.85953 13.9638 0.0278164C13.7239 0.469582 13.493 0.890753 13.2713 1.29513C10.254 6.79797 8.94199 9.19086 9.87483 18.0529C10.9226 18.2754 13.758 19.2434 16.7177 21.3352L16.5508 21.6968C14.0102 21.4557 8.31154 21.0236 5.84144 21.2239C5.41493 19.2397 5.02364 14.2587 6.87065 10.2086C3.94993 14.3255 3.36579 17.3296 3.86648 23.3936C5.97126 22.9856 11.4548 22.2921 16.5508 22.7816L16.7177 23.2267C12.9717 23.6996 4.38387 25.0682 0 26.7594C0.12275 27.4168 0.241912 28.0614 0.358726 28.6933C1.43312 34.5051 2.30885 39.2423 3.94993 42.9764C6.73175 48.326 9.10711 51.0743 11.9967 54.4176C12.4877 54.9857 12.9936 55.571 13.5188 56.1892C9.04034 49.9861 4.40056 42.1975 3.86648 28.2893C6.81502 27.1117 13.63 24.5675 17.3018 23.8109L17.5522 24.395C14.548 25.6653 8.06676 28.5396 6.39778 29.8748C6.41619 30.1223 6.43432 30.3708 6.45254 30.6205C6.87448 36.4041 7.34085 42.7966 12.4339 50.8762C10.8484 47.3992 9.05702 43.4381 8.67872 30.5981C10.8762 29.1238 15.7663 25.9082 17.7469 24.8401L17.9694 25.2017C16.968 25.8415 14.6426 27.4492 13.3519 28.7622C13.2684 29.3 13.1516 31.3046 13.3519 35.0209C14.3069 36.7548 16.9736 40.5063 20 41.6412C21.5485 41.0107 25.0292 38.8039 26.5647 35.0209C26.6852 34.1307 26.8985 31.644 26.7872 28.8178C25.86 27.974 23.6161 26.0695 22.0584 25.2017ZM17.0516 26.6481L17.04 26.6577L17.04 26.6577C16.4497 27.1449 15.1115 28.2494 14.4925 28.9569C14.5018 30.1159 14.5871 32.7622 14.7428 33.9638C15.4382 35.3361 17.5356 38.3644 20.028 39.4993C21.3075 38.8317 24.2783 36.701 25.2574 33.9638C25.2625 33.9103 25.2681 33.8519 25.2741 33.789C25.3671 32.8158 25.5634 30.7612 25.5634 29.0681C25.0164 28.484 23.7498 27.1822 23.0599 26.6481C23.403 27.0932 24.2115 28.2003 24.7011 29.0681C24.7475 29.6152 24.717 30.9703 24.5342 32.1279C24.3673 33.185 22.9487 36.1057 20.028 37.3296C18.7206 36.7905 16.0391 34.9954 15.5495 32.1279C15.4661 31.7385 15.3159 30.6648 15.3826 29.1516C15.6764 28.7011 16.1909 27.9334 16.6056 27.3146C16.7798 27.0546 16.9364 26.8209 17.0516 26.6481Z" fill="white"/>
</svg>
